<svg width="577" height="354" viewBox="0 0 577 354" fill="none" xmlns="http://www.w3.org/2000/svg">
<path fill-rule="evenodd" clip-rule="evenodd" d="M155.951 208.019C155.951 194.501 144.908 183.502 131.434 183.502H128.475C114.471 183.502 102.986 172.017 102.986 157.969C102.986 143.966 114.471 132.48 128.475 132.48H185.195C185.195 132.48 226.631 130.581 234.626 106.859C242.622 83.1815 249.071 71.2544 294.615 71.2544H311.49C320.811 71.2544 328.453 63.6563 328.453 54.3355C328.453 45.0588 320.811 37.4166 311.49 37.4166H300.314C293.864 37.4166 288.608 32.1599 288.608 25.7545C288.608 19.3492 293.864 14.0924 300.314 14.0924C346.697 14.0924 340.38 14.0924 386.764 14.0924C416.758 14.0924 418.083 0.0449219 429.966 0.0449219C441.849 0.0449219 486.377 0.0449219 486.377 0.0449219C491.281 0.0449219 495.301 4.06481 495.301 8.96819V9.01236C495.301 13.9157 491.281 17.9356 486.377 17.9356H477.763C470.651 17.9356 464.776 23.7667 464.776 30.923C464.776 38.0351 470.651 43.8661 477.763 43.8661H526.532C544.865 43.8661 559.84 58.8855 559.84 77.1738C559.84 95.5062 544.865 110.481 526.532 110.481H487.968C470.342 110.481 455.941 124.926 455.941 142.552C455.941 160.178 470.342 174.579 487.968 174.579C529.624 174.579 563.727 208.682 563.727 250.338C563.727 292.039 529.624 326.142 487.968 326.142H83.5934C57.8396 326.142 36.8125 305.07 36.8125 279.317C36.8125 253.607 57.8396 232.536 83.5934 232.536H131.434C144.908 232.536 155.951 221.492 155.951 208.019ZM511.468 17.9356C506.521 17.9356 502.545 13.9157 502.545 9.01236C502.545 4.06481 506.521 0.0449219 511.468 0.0449219C516.416 0.0449219 520.436 4.06481 520.436 9.01236C520.436 13.9157 516.416 17.9356 511.468 17.9356Z" fill="#E2E8F5"/>
<path fill-rule="evenodd" clip-rule="evenodd" d="M135.454 232.227C136.868 231.991 138.222 231.638 139.518 231.166V254.27L155.068 238.72L144.863 228.516C145.629 228.015 146.365 227.471 147.072 226.882L157.011 236.821L174.46 219.328V219.107L157.011 201.658L155.465 203.204C155.259 202.144 154.979 201.128 154.626 200.156L155.068 199.714L154.14 198.742C151.622 192.69 146.763 187.787 140.667 185.313L139.518 184.165V184.872C138.222 184.4 136.868 184.047 135.454 183.811V132.48H139.518V137.207L144.245 132.48H148.132L139.518 141.05V141.315L157.011 158.764L174.46 141.315V141.05L165.89 132.48H169.734L174.46 137.207V132.48H178.569V326.142H174.46V301.272L158.911 316.777L168.276 326.142H164.433L157.011 318.721L149.59 326.142H145.703L155.068 316.777L139.518 301.272V326.142H135.454V232.227ZM155.068 277.771L139.518 262.221V293.32L155.068 277.771ZM155.068 160.664L139.562 145.159V176.213L155.068 160.664ZM158.911 160.664L174.46 176.213V145.114L158.911 160.664ZM158.911 199.714L174.416 215.219V184.165L158.911 199.714ZM158.911 238.765L174.46 254.27V223.215L158.911 238.765ZM158.911 277.771L174.46 293.32V262.265L158.911 277.771ZM139.518 180.322L156.967 197.771L174.416 180.322V180.101L156.967 162.608L139.518 180.101V180.322ZM139.518 258.334L156.967 275.827L174.416 258.334V258.113L156.967 240.664L139.518 258.113V258.334ZM139.518 297.384L156.967 314.833L174.416 297.384V297.119L156.967 279.67L139.518 297.119V297.384Z" fill="#BFCCE8"/>
<path fill-rule="evenodd" clip-rule="evenodd" d="M421.971 2.47452C423.296 1.67938 424.621 1.01676 426.079 0.61919V20.1444L441.584 4.5949L437.034 0.0449219H440.922L443.528 2.65122L446.134 0.0449219H450.022L445.472 4.5949L460.977 20.1444V0.0449219H465.085V28.14C464.908 29.0235 464.805 29.9511 464.776 30.923C464.805 31.8654 464.908 32.7783 465.085 33.6618V120.156C463.583 121.746 462.17 123.425 460.977 125.28V106.152L445.472 121.658L457.266 133.452C456.942 134.453 456.677 135.484 456.471 136.544L443.528 123.601L426.079 141.05V141.315L443.528 158.764L456.118 146.174C456.265 147.294 456.456 148.398 456.692 149.488L445.472 160.708L460.977 176.213V159.78C462.17 161.636 463.583 163.358 465.085 164.904V326.142H460.977V301.271L445.472 316.777L454.792 326.142H450.949L443.528 318.72L436.107 326.142H432.263L441.584 316.777L426.079 301.271V326.142H421.971V2.47452ZM441.584 277.726L426.079 262.221V293.276L441.584 277.726ZM441.584 238.676L426.035 223.171V254.225L441.584 238.676ZM441.584 199.67L426.079 184.12V215.175L441.584 199.67ZM441.584 160.664L426.035 145.114V176.169L441.584 160.664ZM441.584 121.658L426.035 106.108V137.207L441.584 121.658ZM441.584 82.6072L426.079 67.1019V98.1567L441.584 82.6072ZM441.584 43.5569L426.035 28.0516V59.1064L441.584 43.5569ZM445.427 43.5569L460.977 59.1064V28.0074L445.427 43.5569ZM445.427 82.6072L460.977 98.1125V67.0578L445.427 82.6072ZM445.427 199.67L460.933 215.219V184.165L445.427 199.67ZM445.427 238.676L460.977 254.225V223.171L445.427 238.676ZM445.427 277.682L460.977 293.232V262.133L445.427 277.682ZM426.035 24.1642L443.484 41.6132L460.933 24.1642V23.9434L443.484 6.45024L426.035 23.9434V24.1642ZM426.035 63.1704L443.484 80.6194L460.933 63.1704V62.9495L443.484 45.4564L426.035 62.9495V63.1704ZM426.035 102.177L443.484 119.626L460.933 102.177V101.956L443.484 84.4626L426.035 101.956V102.177ZM426.035 180.233L443.484 197.682L460.933 180.233V179.968L443.484 162.519L426.035 179.968V180.233ZM426.035 219.283L443.484 236.732L460.933 219.283V219.018L443.484 201.569L426.035 219.018V219.283ZM426.035 258.334L443.484 275.783L460.933 258.334V258.069L443.484 240.62L426.035 258.069V258.334ZM426.035 297.384L443.484 314.833L460.933 297.384V297.163L443.484 279.67L426.035 297.163V297.384Z" fill="#BFCCE8"/>
<path fill-rule="evenodd" clip-rule="evenodd" d="M120.921 326.142H114.913V309.179L97.9497 326.142H92.2512L114.913 303.48V303.127L89.159 277.417L63.4494 303.127V303.48L86.1109 326.142H83.593C82.4739 326.142 81.3695 326.098 80.2799 326.009L63.4494 309.179V321.548C61.329 320.517 59.3117 319.354 57.3975 318.058V240.62C59.3117 239.324 61.329 238.161 63.4494 237.13V239.957L68.2202 235.142C70.694 234.288 73.2561 233.64 75.9066 233.198L63.4494 245.611V245.965L89.159 271.719L114.913 245.965V245.611L101.793 232.536H107.491L114.913 239.957V232.536H120.921V326.142ZM120.921 182.353C118.8 181.691 116.768 180.719 114.913 179.526V136.677L106.564 145.026C109.789 139.637 114.869 135.528 120.921 133.629V182.353ZM86.3318 274.59L63.4494 251.708V297.472L86.3318 274.59ZM92.0303 274.59L114.913 297.472V251.708L92.0303 274.59Z" fill="#BFCCE8"/>
<path fill-rule="evenodd" clip-rule="evenodd" d="M479.618 173.474C481.562 174.004 483.564 174.342 485.626 174.49V182.441L493.312 174.755C495.05 174.902 496.758 175.093 498.437 175.329L485.626 188.14V188.493L511.38 214.203L534.748 190.834C537.708 193.22 540.535 195.782 543.141 198.565V302.154C537.399 308.25 530.64 313.419 523.174 317.394L537.089 303.479V303.126L511.38 277.416L485.626 303.126V303.479L506.079 323.932C504.547 324.315 502.987 324.654 501.396 324.948L485.626 309.178V326.141H479.618V173.474ZM479.618 43.8654H485.626V67.4546L508.508 44.5722L507.846 43.8654H514.87L514.207 44.5722L537.089 67.4546V45.6324C539.21 46.3391 541.242 47.2668 543.141 48.327V106.019C541.242 107.123 539.21 108.051 537.089 108.758V79.1609L514.207 102.043L522.644 110.525H516.946L511.38 104.915L505.77 110.525H500.071L508.508 102.043L485.626 79.1609V110.569C483.564 110.746 481.562 111.099 479.618 111.629V43.8654ZM479.618 0H485.626V9.89511L492.782 2.73882C493.754 3.75484 494.505 4.99173 494.903 6.31696L485.626 15.5936V15.947L487.525 17.8465C487.143 17.9054 486.76 17.9349 486.377 17.9349H479.618V0ZM508.508 274.501L485.626 251.618V297.383L508.508 274.501ZM508.508 216.986L485.626 194.103V239.912L508.508 216.986ZM514.207 216.986L537.089 239.868V194.059L514.207 216.986ZM514.207 274.501L537.089 297.383V251.618L514.207 274.501ZM485.626 73.4182L511.38 99.172L537.089 73.4182V73.0648L511.38 47.3552L485.626 73.0648V73.4182ZM485.626 245.92L511.38 271.674L537.089 245.92V245.567L511.38 219.857L485.626 245.567V245.92Z" fill="#BFCCE8"/>
<path d="M156.261 254.666V283.689C156.261 285.367 154.891 286.737 153.257 286.737H112.086C110.407 286.737 109.038 285.367 109.038 283.689V254.666C109.038 253.032 110.407 251.662 112.086 251.662H153.257C154.891 251.662 156.261 253.032 156.261 254.666Z" fill="#90A9D5"/>
<path d="M183.296 254.666V283.689C183.296 285.367 181.926 286.737 180.248 286.737H139.077C137.398 286.737 136.073 285.367 136.073 283.689V254.666C136.073 253.032 137.398 251.662 139.077 251.662H180.248C181.926 251.662 183.296 253.032 183.296 254.666Z" fill="#B6C7E6"/>
<path d="M176.625 264.959V273.396C176.625 274.368 175.83 275.163 174.902 275.163H144.422C143.494 275.163 142.699 274.368 142.699 273.396V264.959C142.699 264.031 143.494 263.236 144.422 263.236H174.902C175.83 263.236 176.625 264.031 176.625 264.959Z" fill="#90A9D5"/>
<path d="M161.96 265.621V267.476C161.96 267.697 161.783 267.874 161.606 267.874H146.631C146.41 267.874 146.233 267.697 146.233 267.476V265.621C146.233 265.444 146.41 265.268 146.631 265.268H161.606C161.783 265.268 161.96 265.444 161.96 265.621Z" fill="#E6E4EB"/>
<path d="M154.406 269.773V271.584C154.406 271.805 154.229 271.981 154.008 271.981H146.631C146.41 271.981 146.233 271.805 146.233 271.584V269.773C146.233 269.552 146.41 269.375 146.631 269.375H154.008C154.229 269.375 154.406 269.552 154.406 269.773Z" fill="#E6E4EB"/>
<path d="M139.032 286.736H188.331C190.363 286.736 191.998 288.371 191.998 290.359V325.168C191.998 327.156 190.363 328.791 188.331 328.791H139.032C137.045 328.791 135.41 327.156 135.41 325.168V290.359C135.41 288.371 137.045 286.736 139.032 286.736Z" fill="#90A9D5"/>
<path d="M106.653 286.736H155.996C157.983 286.736 159.618 288.371 159.618 290.359V325.168C159.618 327.156 157.983 328.791 155.996 328.791H106.653C104.665 328.791 103.03 327.156 103.03 325.168V290.359C103.03 288.371 104.665 286.736 106.653 286.736Z" fill="#B6C7E6"/>
<path d="M113.058 300.607H149.59C150.739 300.607 151.666 301.579 151.666 302.684V312.844C151.666 313.948 150.739 314.92 149.59 314.92H113.058C111.909 314.92 110.981 313.948 110.981 312.844V302.684C110.981 301.579 111.909 300.607 113.058 300.607Z" fill="#90A9D5"/>
<path d="M129.005 303.037H146.984C147.205 303.037 147.426 303.258 147.426 303.523V305.732C147.426 305.953 147.205 306.174 146.984 306.174H129.005C128.74 306.174 128.563 305.953 128.563 305.732V303.523C128.563 303.258 128.74 303.037 129.005 303.037Z" fill="#E6E4EB"/>
<path d="M138.105 307.984H146.984C147.205 307.984 147.426 308.205 147.426 308.426V310.635C147.426 310.9 147.205 311.077 146.984 311.077H138.105C137.84 311.077 137.663 310.9 137.663 310.635V308.426C137.663 308.205 137.84 307.984 138.105 307.984Z" fill="#E6E4EB"/>
<path fill-rule="evenodd" clip-rule="evenodd" d="M367.68 85.3019H367.724C367.753 85.2724 367.783 85.2577 367.812 85.2577C367.842 85.2283 367.856 85.1841 367.856 85.1252V78.3223C367.856 77.748 368.077 77.2621 368.475 76.8645C368.651 76.6878 368.872 76.5406 369.137 76.4228C369.373 76.305 369.638 76.2461 369.933 76.2461H378.282C378.547 76.2461 378.797 76.305 379.033 76.4228C379.298 76.5406 379.533 76.6878 379.739 76.8645C379.916 77.0707 380.063 77.2916 380.181 77.5272C380.269 77.7922 380.328 78.0573 380.358 78.3223V85.1252C380.328 85.1546 380.328 85.1841 380.358 85.2135C380.387 85.243 380.417 85.2724 380.446 85.3019C381.359 85.5669 382.243 85.8762 383.097 86.2296C383.951 86.583 384.79 86.9952 385.614 87.4664C386.41 87.9376 387.175 88.453 387.912 89.0125C388.677 89.5721 389.399 90.1758 390.076 90.8237V90.8679C390.106 90.8679 390.135 90.8826 390.164 90.9121C390.194 90.9121 390.238 90.8973 390.297 90.8679L395.73 87.7315L396.172 87.4664C396.408 87.3192 396.658 87.2309 396.923 87.2014C397.218 87.172 397.497 87.2014 397.763 87.2897C397.998 87.3486 398.234 87.4664 398.469 87.6431C398.528 87.6726 398.572 87.702 398.602 87.7315L398.69 87.6873C400.192 90.2494 401.782 92.8999 403.196 95.462C403.314 95.6976 403.387 95.948 403.417 96.213C403.476 96.5075 403.461 96.7873 403.373 97.0523C403.314 97.2879 403.196 97.5235 403.019 97.7591C402.872 97.9653 402.666 98.142 402.401 98.2892L396.526 101.691C396.496 101.72 396.481 101.75 396.481 101.779C396.452 101.808 396.437 101.838 396.437 101.867C396.555 102.309 396.658 102.766 396.747 103.237C396.835 103.708 396.908 104.164 396.967 104.606C397.026 105.077 397.07 105.549 397.1 106.02C397.129 106.491 397.144 106.962 397.144 107.433C397.144 107.905 397.129 108.376 397.1 108.847C397.07 109.318 397.026 109.789 396.967 110.261C396.908 110.702 396.835 111.159 396.747 111.63C396.688 111.866 396.643 112.116 396.614 112.381L396.437 112.999C396.437 113.029 396.452 113.058 396.481 113.088C396.481 113.117 396.496 113.147 396.526 113.176L402.401 116.578C402.666 116.725 402.872 116.901 403.019 117.108C403.196 117.343 403.314 117.579 403.373 117.814C403.461 118.079 403.476 118.359 403.417 118.654C403.417 118.713 403.417 118.771 403.417 118.83L403.461 118.875C402.003 121.437 400.546 124.176 398.999 126.649C398.852 126.885 398.675 127.076 398.469 127.224C398.234 127.4 397.998 127.533 397.763 127.621C397.497 127.68 397.218 127.695 396.923 127.665C396.658 127.636 396.408 127.548 396.172 127.4L390.297 123.999C390.268 123.969 390.223 123.955 390.164 123.955C390.135 123.955 390.106 123.969 390.076 123.999C389.399 124.676 388.692 125.295 387.956 125.854C387.19 126.414 386.41 126.929 385.614 127.4C384.79 127.871 383.951 128.284 383.097 128.637C382.272 128.991 381.403 129.3 380.49 129.565H380.446C380.417 129.594 380.387 129.624 380.358 129.653C380.358 129.653 380.358 129.683 380.358 129.742V136.544C380.328 136.809 380.269 137.075 380.181 137.34C380.063 137.575 379.916 137.796 379.739 138.002C379.533 138.208 379.298 138.356 379.033 138.444C378.797 138.562 378.547 138.621 378.282 138.621H369.933C369.638 138.621 369.373 138.562 369.137 138.444C368.872 138.356 368.651 138.208 368.475 138.002C368.269 137.796 368.107 137.575 367.989 137.34C367.901 137.075 367.856 136.809 367.856 136.544V129.742C367.856 129.712 367.842 129.683 367.812 129.653C367.783 129.624 367.753 129.594 367.724 129.565C366.811 129.329 365.927 129.02 365.073 128.637C364.219 128.284 363.395 127.871 362.6 127.4C361.775 126.929 360.995 126.414 360.258 125.854C359.493 125.295 358.771 124.676 358.094 123.999C358.064 123.999 358.035 123.984 358.005 123.955C357.976 123.955 357.946 123.969 357.917 123.999C355.973 125.103 353.941 126.384 351.998 127.4C351.762 127.548 351.512 127.636 351.247 127.665C350.982 127.695 350.717 127.68 350.452 127.621C350.186 127.533 349.936 127.4 349.701 127.224C349.671 127.194 349.627 127.165 349.568 127.135L349.48 127.179L345.018 119.405C344.871 119.169 344.782 118.919 344.753 118.654C344.724 118.359 344.738 118.079 344.797 117.814C344.856 117.579 344.974 117.343 345.151 117.108L345.239 117.019L345.151 116.931C347.271 115.694 349.48 114.325 351.644 113.176C351.674 113.176 351.703 113.147 351.733 113.088C351.733 113.058 351.733 113.029 351.733 112.999C351.615 112.558 351.512 112.101 351.423 111.63C351.335 111.159 351.261 110.702 351.203 110.261C351.173 109.789 351.144 109.318 351.114 108.847C351.085 108.376 351.07 107.905 351.07 107.433C351.07 106.962 351.085 106.491 351.114 106.02C351.144 105.549 351.173 105.092 351.203 104.65C351.261 104.179 351.335 103.708 351.423 103.237C351.482 102.972 351.541 102.707 351.6 102.442L351.733 101.867C351.733 101.838 351.733 101.808 351.733 101.779C351.703 101.75 351.674 101.72 351.644 101.691C349.701 100.586 347.669 99.4819 345.769 98.2892C345.533 98.142 345.327 97.9653 345.151 97.7591C344.974 97.5235 344.856 97.2879 344.797 97.0523C344.738 96.7873 344.724 96.5075 344.753 96.213C344.782 95.948 344.871 95.6976 345.018 95.462C346.387 93.0766 347.757 90.5587 349.17 88.2174C349.318 87.9818 349.494 87.7904 349.701 87.6431C349.936 87.4664 350.186 87.3486 350.452 87.2897C350.687 87.2014 350.937 87.172 351.203 87.2014C351.468 87.2309 351.718 87.3045 351.953 87.4223C353.927 88.5708 355.914 89.7193 357.917 90.8679C357.946 90.8973 357.976 90.9121 358.005 90.9121C358.035 90.8826 358.064 90.8679 358.094 90.8679C358.771 90.1905 359.493 89.5721 360.258 89.0125C360.995 88.453 361.775 87.9376 362.6 87.4664C363.395 86.9952 364.219 86.583 365.073 86.2296C365.898 85.8762 366.767 85.5669 367.68 85.3019ZM367.989 86.4946C367.164 86.7302 366.354 87.0247 365.559 87.3781C364.735 87.702 363.954 88.0849 363.218 88.5266C362.423 88.9684 361.672 89.469 360.965 90.0286C360.258 90.5587 359.581 91.1329 358.933 91.7514C358.712 91.9723 358.447 92.0606 358.138 92.1048C357.873 92.1489 357.564 92.1048 357.299 91.9281C355.355 90.8237 353.279 89.6752 351.379 88.5266C351.291 88.4677 351.188 88.4383 351.07 88.4383C350.952 88.4088 350.849 88.4088 350.761 88.4383C350.643 88.4677 350.54 88.5266 350.452 88.615C350.363 88.6739 350.29 88.7475 350.231 88.8359C348.817 91.0004 347.403 93.7834 346.078 96.0805C346.019 96.1688 345.975 96.2719 345.946 96.3897C345.946 96.5075 345.96 96.6106 345.99 96.6989C346.019 96.8167 346.064 96.9198 346.122 97.0082C346.181 97.0965 346.27 97.1701 346.387 97.229C348.154 98.3776 350.407 99.5703 352.263 100.63C352.528 100.807 352.749 101.028 352.837 101.293C352.896 101.381 352.925 101.47 352.925 101.558L353.058 101.602L352.925 102.177C352.808 102.589 352.719 103.016 352.66 103.458C352.572 103.87 352.498 104.312 352.439 104.783C352.38 105.225 352.336 105.666 352.307 106.108C352.307 106.52 352.307 106.962 352.307 107.433C352.307 107.905 352.307 108.346 352.307 108.759C352.336 109.2 352.38 109.642 352.439 110.084C352.498 110.555 352.572 110.997 352.66 111.409C352.719 111.851 352.808 112.278 352.925 112.69C353.014 112.999 352.969 113.353 352.837 113.618C352.704 113.883 352.484 114.148 352.219 114.28L347.006 117.284L346.387 117.638C346.27 117.697 346.181 117.77 346.122 117.859C346.064 117.947 346.019 118.05 345.99 118.168C345.96 118.286 345.946 118.389 345.946 118.477C345.975 118.595 346.019 118.698 346.078 118.786L349.921 125.501L350.231 126.031C350.29 126.119 350.363 126.193 350.452 126.252C350.54 126.34 350.643 126.399 350.761 126.428C350.879 126.458 350.982 126.458 351.07 126.428C351.188 126.428 351.291 126.399 351.379 126.34C353.279 125.147 355.355 124.043 357.299 122.939C357.564 122.762 357.873 122.718 358.138 122.762C358.447 122.806 358.712 122.894 358.933 123.115C359.581 123.734 360.258 124.308 360.965 124.838C361.672 125.398 362.423 125.898 363.218 126.34C363.954 126.782 364.735 127.179 365.559 127.533C366.354 127.857 367.194 128.151 368.077 128.416C368.342 128.46 368.607 128.681 368.784 128.902C368.961 129.123 369.093 129.432 369.093 129.742V136.544C369.093 136.662 369.108 136.765 369.137 136.854C369.196 136.942 369.255 137.03 369.314 137.119C369.402 137.207 369.491 137.266 369.579 137.295C369.697 137.354 369.815 137.384 369.933 137.384H378.282C378.37 137.384 378.473 137.354 378.591 137.295C378.679 137.266 378.767 137.207 378.856 137.119C378.944 137.03 379.003 136.942 379.033 136.854C379.091 136.765 379.121 136.662 379.121 136.544V129.742C379.121 129.432 379.209 129.123 379.386 128.858C379.607 128.637 379.872 128.46 380.181 128.372C381.006 128.137 381.815 127.842 382.611 127.489C383.435 127.165 384.23 126.782 384.996 126.34C385.762 125.898 386.498 125.398 387.205 124.838C387.912 124.308 388.589 123.734 389.237 123.115C389.458 122.894 389.767 122.762 390.076 122.762C390.385 122.718 390.695 122.806 390.96 122.983L396.791 126.34C396.879 126.399 396.982 126.428 397.1 126.428C397.218 126.458 397.321 126.458 397.409 126.428C397.527 126.399 397.63 126.34 397.718 126.252C397.807 126.193 397.88 126.119 397.939 126.031C399.309 123.601 400.722 121.216 402.092 118.786C402.151 118.698 402.195 118.595 402.224 118.477C402.224 118.359 402.209 118.256 402.18 118.168C402.151 118.05 402.106 117.947 402.047 117.859C401.989 117.77 401.915 117.697 401.827 117.638L395.907 114.236C395.642 114.06 395.465 113.839 395.333 113.574C395.303 113.515 395.274 113.441 395.245 113.353L395.112 113.309L395.245 112.69C395.362 112.278 395.465 111.851 395.554 111.409C395.613 110.997 395.672 110.555 395.73 110.084C395.789 109.642 395.834 109.2 395.863 108.759C395.892 108.346 395.907 107.905 395.907 107.433C395.907 106.962 395.892 106.52 395.863 106.108C395.834 105.666 395.789 105.225 395.73 104.783C395.672 104.312 395.613 103.87 395.554 103.458C395.465 103.016 395.362 102.589 395.245 102.177C395.156 101.867 395.2 101.514 395.333 101.249C395.465 100.984 395.686 100.719 395.951 100.586L401.782 97.229C401.9 97.1701 401.989 97.0965 402.047 97.0082C402.106 96.9198 402.151 96.8167 402.18 96.6989C402.209 96.6106 402.224 96.5075 402.224 96.3897C402.195 96.2719 402.151 96.1688 402.092 96.0805C400.678 93.9601 399.264 91.1329 397.939 88.8359C397.88 88.7475 397.807 88.6739 397.718 88.615C397.63 88.5266 397.527 88.4677 397.409 88.4383C397.321 88.4088 397.218 88.4088 397.1 88.4383C396.982 88.4383 396.879 88.4677 396.791 88.5266L390.871 91.9281C390.606 92.1048 390.297 92.1489 389.988 92.1048C389.723 92.0606 389.414 91.9281 389.193 91.7072C388.574 91.0888 387.912 90.5145 387.205 89.9844C386.498 89.4543 385.762 88.9684 384.996 88.5266C384.23 88.0849 383.435 87.702 382.611 87.3781C381.815 87.0247 380.991 86.7302 380.137 86.4946C379.828 86.4063 379.563 86.1854 379.386 85.9645C379.209 85.7436 379.121 85.4344 379.121 85.1252V78.3223C379.121 78.2045 379.091 78.1014 379.033 78.0131C379.003 77.9247 378.944 77.8364 378.856 77.748C378.767 77.6597 378.679 77.6008 378.591 77.5713C378.473 77.5124 378.37 77.483 378.282 77.483H369.933C369.815 77.483 369.697 77.5124 369.579 77.5713C369.491 77.6008 369.402 77.6597 369.314 77.748C369.182 77.8806 369.093 78.1014 369.093 78.3223V85.1252C369.093 85.4786 368.961 85.7436 368.784 86.0087C368.563 86.2296 368.298 86.4063 367.989 86.4946ZM364.676 98.0242C365.913 96.7873 367.37 95.8154 369.005 95.1528C370.595 94.4902 372.274 94.1368 374.085 94.1368C375.896 94.1368 377.619 94.4902 379.165 95.1528C380.799 95.8154 382.257 96.7873 383.494 98.0242C384.731 99.2611 385.703 100.719 386.365 102.353C387.028 103.899 387.381 105.622 387.381 107.433C387.381 109.245 387.028 110.967 386.365 112.513C385.703 114.148 384.731 115.606 383.494 116.843C382.257 118.079 380.799 119.051 379.165 119.714C377.619 120.377 375.896 120.73 374.085 120.73C372.274 120.73 370.595 120.377 369.005 119.714C367.37 119.051 365.913 118.079 364.676 116.843C363.483 115.606 362.467 114.148 361.804 112.513C361.142 110.967 360.788 109.245 360.788 107.433C360.788 105.622 361.142 103.899 361.804 102.353C362.467 100.719 363.483 99.2611 364.676 98.0242ZM369.491 96.2572C367.989 96.8756 366.664 97.8033 365.559 98.9077C364.455 100.012 363.527 101.337 362.953 102.795C362.334 104.253 362.025 105.799 362.025 107.433C362.025 109.068 362.334 110.614 362.953 112.072C363.527 113.529 364.455 114.855 365.559 115.959C366.664 117.063 367.989 117.991 369.491 118.61C370.904 119.184 372.45 119.493 374.085 119.493C375.719 119.493 377.266 119.184 378.723 118.61C380.181 117.991 381.506 117.063 382.611 115.959C383.759 114.855 384.643 113.529 385.261 112.072C385.835 110.614 386.145 109.068 386.145 107.433C386.145 105.799 385.835 104.253 385.261 102.795C384.643 101.337 383.759 100.012 382.611 98.9077C381.506 97.8033 380.181 96.8756 378.723 96.2572C377.31 95.6829 375.719 95.3737 374.085 95.3737C372.45 95.3737 370.904 95.6829 369.491 96.2572Z" fill="#BFCCE8"/>
<path fill-rule="evenodd" clip-rule="evenodd" d="M22.9855 152.005V151.961C23.0444 151.961 23.0739 151.946 23.0739 151.917C23.1033 151.887 23.118 151.858 23.118 151.828V145.025C23.118 144.451 23.3389 143.921 23.7365 143.568C23.9426 143.362 24.1635 143.214 24.3991 143.126C24.6641 143.008 24.9292 142.949 25.1942 142.949H33.5432C33.8083 142.949 34.0733 143.008 34.3384 143.126C34.6034 143.214 34.8243 143.362 35.001 143.568C35.2071 143.744 35.3544 143.965 35.4427 144.23C35.5605 144.466 35.6194 144.731 35.6194 145.025V151.828C35.6194 151.858 35.6342 151.887 35.6636 151.917C35.6636 151.946 35.6931 151.961 35.752 151.961C36.6355 152.226 37.5042 152.55 38.3583 152.933C39.2418 153.286 40.0811 153.698 40.8762 154.17C41.6714 154.641 42.4518 155.156 43.2175 155.716C43.9537 156.275 44.6605 156.879 45.3379 157.527C45.3673 157.556 45.4115 157.571 45.4704 157.571C45.4998 157.571 45.5293 157.571 45.5587 157.571L51.0364 154.39L51.4339 154.17C51.699 154.022 51.964 153.934 52.2291 153.905C52.4941 153.875 52.7592 153.89 53.0242 153.949C53.2893 154.037 53.5249 154.155 53.731 154.302C53.7899 154.361 53.8488 154.405 53.9077 154.435L53.9519 154.39C55.4538 156.953 57.0441 159.559 58.4577 162.165C58.605 162.401 58.6933 162.651 58.7228 162.916C58.7522 163.181 58.7375 163.446 58.6786 163.711C58.5902 163.976 58.4577 164.227 58.281 164.462C58.1338 164.668 57.9423 164.845 57.7067 164.992L51.8315 168.394C51.7726 168.394 51.7432 168.409 51.7432 168.438C51.7137 168.497 51.7137 168.541 51.7432 168.57C51.8315 169.012 51.9199 169.469 52.0082 169.94C52.0966 170.411 52.1702 170.868 52.2291 171.309C52.288 171.781 52.3322 172.252 52.3616 172.723C52.3911 173.194 52.4058 173.665 52.4058 174.136C52.4058 174.578 52.3911 175.049 52.3616 175.55C52.3322 176.021 52.288 176.478 52.2291 176.919C52.1702 177.391 52.0966 177.862 52.0082 178.333C51.9788 178.569 51.9346 178.804 51.8757 179.04L51.7432 179.658C51.7137 179.717 51.7137 179.761 51.7432 179.791C51.7432 179.82 51.7579 179.85 51.7873 179.879L57.7067 183.281C57.9423 183.398 58.1338 183.575 58.281 183.811C58.4577 184.017 58.5902 184.252 58.6786 184.518C58.7375 184.783 58.7522 185.048 58.7228 185.313C58.6933 185.401 58.6786 185.475 58.6786 185.534L58.7669 185.578C57.265 188.14 55.8072 190.834 54.2611 193.352C54.1139 193.588 53.9372 193.779 53.731 193.927C53.5249 194.103 53.2893 194.221 53.0242 194.28C52.7592 194.368 52.4941 194.383 52.2291 194.324C51.964 194.295 51.699 194.221 51.4339 194.103L45.5587 190.702C45.5293 190.673 45.4998 190.658 45.4704 190.658C45.4115 190.658 45.3673 190.673 45.3379 190.702C44.6605 191.35 43.9537 191.954 43.2175 192.513C42.4812 193.073 41.7008 193.588 40.8762 194.059C40.0811 194.53 39.2565 194.957 38.4024 195.34C37.5484 195.694 36.6649 196.003 35.752 196.268C35.6931 196.268 35.6636 196.283 35.6636 196.312C35.6342 196.342 35.6194 196.386 35.6194 196.445V203.203C35.6194 203.498 35.5605 203.763 35.4427 203.998C35.3544 204.264 35.2071 204.499 35.001 204.705C34.7949 204.882 34.574 205.029 34.3384 205.147C34.0733 205.235 33.8083 205.28 33.5432 205.28H25.1942C24.9292 205.28 24.6641 205.235 24.3991 205.147C24.1635 205.029 23.9426 204.882 23.7365 204.705C23.5303 204.499 23.3831 204.264 23.2947 203.998C23.1769 203.763 23.118 203.498 23.118 203.203V196.445C23.118 196.386 23.1033 196.342 23.0739 196.312C23.0739 196.283 23.0444 196.268 22.9855 196.268C22.102 196.003 21.2333 195.694 20.3792 195.34C19.4957 194.957 18.6564 194.53 17.8613 194.059C17.0367 193.588 16.2562 193.073 15.52 192.513C14.7838 191.954 14.077 191.35 13.3996 190.702C13.3702 190.673 13.326 190.658 13.2671 190.658C13.2377 190.658 13.2082 190.658 13.1788 190.658C11.2351 191.806 9.24721 193.043 7.25936 194.103C7.02376 194.221 6.77344 194.295 6.50839 194.324C6.24334 194.383 5.9783 194.368 5.71325 194.28C5.4482 194.221 5.2126 194.103 5.00645 193.927C4.94755 193.897 4.88866 193.853 4.82976 193.794L4.78558 193.883L0.279772 186.108C0.132523 185.872 0.0441748 185.607 0.014725 185.313C-0.0147247 185.048 -5.00272e-07 184.783 0.058899 184.518C0.147248 184.252 0.279773 184.017 0.456471 183.811L0.500645 183.722L0.412297 183.634C2.57685 182.397 4.74141 181.028 6.90596 179.879C6.96486 179.85 6.99431 179.82 6.99431 179.791C7.02376 179.761 7.02376 179.732 6.99431 179.702C6.90596 179.231 6.81761 178.775 6.72926 178.333C6.64091 177.862 6.56729 177.391 6.50839 176.919C6.44949 176.478 6.40532 176.021 6.37587 175.55C6.34642 175.049 6.33169 174.578 6.33169 174.136C6.33169 173.665 6.34642 173.194 6.37587 172.723C6.40532 172.222 6.44949 171.751 6.50839 171.309C6.56729 170.868 6.64091 170.411 6.72926 169.94C6.75871 169.645 6.80289 169.366 6.86179 169.101L6.99431 168.57C7.02376 168.541 7.02376 168.497 6.99431 168.438C6.99431 168.409 6.97958 168.394 6.95013 168.394C5.00645 167.245 2.93025 166.141 1.03074 164.992C0.795141 164.845 0.60372 164.668 0.456471 164.462C0.279773 164.227 0.147248 163.976 0.058899 163.711C-5.00272e-07 163.446 -0.0147247 163.181 0.014725 162.916C0.0441748 162.651 0.132523 162.401 0.279772 162.165C1.64918 159.78 3.0186 157.262 4.47636 154.921C4.59416 154.685 4.77085 154.479 5.00645 154.302C5.2126 154.155 5.4482 154.037 5.71325 153.949C5.9783 153.89 6.24334 153.875 6.50839 153.905C6.77344 153.934 7.02376 154.008 7.25936 154.125C9.23249 155.274 11.2056 156.422 13.1788 157.571C13.2082 157.571 13.2377 157.571 13.2671 157.571C13.326 157.571 13.3702 157.556 13.3996 157.527C14.077 156.879 14.7838 156.275 15.52 155.716C16.2562 155.156 17.0367 154.641 17.8613 154.17C18.6564 153.698 19.481 153.286 20.335 152.933C21.1891 152.579 22.0726 152.27 22.9855 152.005ZM23.2947 153.198C22.4407 153.433 21.6161 153.713 20.821 154.037C20.0258 154.39 19.2454 154.788 18.4797 155.23C17.714 155.672 16.9778 156.157 16.271 156.688C15.5347 157.218 14.8574 157.792 14.2389 158.41C14.0181 158.631 13.7088 158.764 13.4438 158.808C13.1346 158.852 12.8254 158.764 12.5603 158.631C10.6166 157.483 8.54042 156.378 6.64091 155.23C6.55256 155.171 6.46422 155.141 6.37587 155.141C6.25807 155.112 6.14027 155.112 6.02247 155.141C5.93412 155.171 5.83105 155.215 5.71325 155.274C5.65435 155.362 5.59545 155.451 5.53655 155.539C4.07879 157.704 2.6652 160.487 1.33996 162.739C1.28106 162.857 1.25161 162.96 1.25161 163.049C1.22216 163.166 1.22216 163.284 1.25161 163.402C1.28106 163.52 1.33996 163.623 1.42831 163.711C1.48721 163.8 1.56083 163.873 1.64918 163.932C3.41617 165.081 5.66907 166.229 7.52441 167.334C7.83363 167.466 8.01033 167.731 8.14285 167.996C8.1723 168.085 8.20175 168.173 8.2312 168.261L8.31955 168.305L8.18702 168.836C8.09867 169.277 8.01033 169.719 7.92198 170.161C7.83363 170.573 7.77473 171 7.74528 171.442C7.68638 171.913 7.6422 172.355 7.61275 172.767C7.5833 173.209 7.56858 173.665 7.56858 174.136C7.56858 174.578 7.5833 175.02 7.61275 175.462C7.6422 175.903 7.68638 176.345 7.74528 176.787C7.77473 177.229 7.83363 177.67 7.92198 178.112C8.01033 178.524 8.09867 178.952 8.18702 179.393C8.27537 179.702 8.2312 180.012 8.09867 180.321C7.96615 180.586 7.78945 180.807 7.48023 180.939L2.26763 183.987L1.64918 184.341C1.56083 184.4 1.48721 184.473 1.42831 184.562C1.33996 184.65 1.28106 184.738 1.25161 184.827C1.22216 184.945 1.22216 185.062 1.25161 185.18C1.25161 185.298 1.28106 185.401 1.33996 185.489L5.18315 192.16H5.22732L5.53655 192.69C5.59545 192.808 5.65435 192.896 5.71325 192.955C5.83105 193.014 5.93412 193.058 6.02247 193.087C6.14027 193.117 6.25807 193.132 6.37587 193.132C6.46422 193.102 6.56729 193.058 6.68509 192.999C8.54042 191.85 10.6608 190.746 12.5603 189.598C12.8254 189.465 13.1346 189.421 13.4438 189.421C13.7088 189.465 14.0181 189.598 14.2389 189.818C14.8574 190.437 15.5347 191.011 16.271 191.541C16.9778 192.071 17.714 192.557 18.4797 192.999C19.2454 193.441 20.0405 193.838 20.8651 194.192C21.6603 194.545 22.4849 194.84 23.3389 195.075C23.6481 195.164 23.9132 195.34 24.0899 195.561C24.2666 195.826 24.3549 196.135 24.3549 196.445V203.203C24.3549 203.321 24.3697 203.439 24.3991 203.557C24.458 203.645 24.5316 203.733 24.62 203.822C24.6789 203.91 24.7672 203.969 24.885 203.998C24.9734 204.028 25.0764 204.057 25.1942 204.087H33.5432C33.661 204.057 33.7641 204.028 33.8525 203.998C33.9703 203.969 34.0586 203.91 34.1175 203.822C34.2059 203.733 34.2795 203.645 34.3384 203.557C34.3678 203.439 34.3826 203.321 34.3826 203.203V196.445C34.3826 196.091 34.5151 195.782 34.6918 195.561C34.8685 195.296 35.1335 195.119 35.4427 195.075C36.2968 194.84 37.1214 194.545 37.9165 194.192C38.7117 193.838 39.4921 193.441 40.2578 192.999C41.0235 192.557 41.7597 192.071 42.4665 191.541C43.2027 191.011 43.8801 190.437 44.4985 189.818C44.7636 189.598 45.0286 189.465 45.3379 189.421C45.6471 189.421 45.9563 189.465 46.2213 189.642L52.0524 192.999C52.1702 193.058 52.2733 193.102 52.3616 193.132C52.4794 193.132 52.5972 193.117 52.715 193.087C52.8034 193.058 52.9064 193.014 53.0242 192.955C53.0831 192.896 53.142 192.808 53.2009 192.69C54.6145 190.304 56.0281 187.875 57.3975 185.489C57.4564 185.401 57.4859 185.298 57.4859 185.18C57.5153 185.062 57.5153 184.945 57.4859 184.827C57.4564 184.738 57.3975 184.65 57.3092 184.562C57.2503 184.473 57.1766 184.4 57.0883 184.341L51.2131 180.939C50.9039 180.763 50.7271 180.542 50.5946 180.277C50.5652 180.188 50.5505 180.115 50.5505 180.056L50.3738 180.012L50.5505 179.393C50.6388 178.952 50.7271 178.524 50.8155 178.112C50.9039 177.67 50.9628 177.229 50.9922 176.787C51.0511 176.345 51.0953 175.903 51.1247 175.462C51.1542 175.02 51.1689 174.578 51.1689 174.136C51.1689 173.665 51.1542 173.209 51.1247 172.767C51.0953 172.355 51.0511 171.913 50.9922 171.442C50.9628 171 50.9039 170.573 50.8155 170.161C50.7271 169.719 50.6388 169.277 50.5505 168.836C50.4621 168.526 50.5063 168.217 50.6388 167.952C50.7713 167.643 50.9922 167.422 51.2572 167.289L57.0883 163.932C57.1766 163.873 57.2503 163.8 57.3092 163.711C57.3975 163.623 57.4564 163.52 57.4859 163.402C57.5153 163.284 57.5153 163.166 57.4859 163.049C57.4859 162.96 57.4564 162.857 57.3975 162.739C55.9839 160.663 54.5262 157.792 53.2009 155.539C53.142 155.451 53.0831 155.362 53.0242 155.274C52.9064 155.215 52.8034 155.171 52.715 155.141C52.5972 155.112 52.4794 155.112 52.3616 155.141C52.2733 155.141 52.1702 155.171 52.0524 155.23L46.1772 158.631C45.9121 158.808 45.5587 158.852 45.2937 158.808C44.9845 158.764 44.7194 158.631 44.4985 158.41C43.8506 157.792 43.1733 157.218 42.4665 156.688C41.7597 156.157 41.0235 155.672 40.2578 155.23C39.4921 154.788 38.6969 154.39 37.8724 154.037C37.0772 153.713 36.2526 153.419 35.3986 153.154C35.0893 153.065 34.8243 152.889 34.6476 152.668C34.4709 152.403 34.3826 152.138 34.3826 151.828V145.025C34.3826 144.908 34.3678 144.805 34.3384 144.716C34.2795 144.598 34.2059 144.495 34.1175 144.407C34.0586 144.348 33.9703 144.289 33.8525 144.23C33.7641 144.201 33.661 144.186 33.5432 144.186H25.1942C25.0764 144.186 24.9734 144.201 24.885 144.23C24.7672 144.289 24.6789 144.348 24.62 144.407C24.4433 144.584 24.3549 144.805 24.3549 145.025V151.828C24.3549 152.138 24.2224 152.447 24.0457 152.668C23.869 152.933 23.604 153.109 23.2947 153.198ZM19.9816 164.727C21.1744 163.49 22.6321 162.519 24.2666 161.812C25.8569 161.193 27.5797 160.84 29.3908 160.84C31.1578 160.84 32.8806 161.193 34.4709 161.812C36.1054 162.519 37.5631 163.49 38.7558 164.727C39.9927 165.92 40.9646 167.422 41.6714 169.056C42.334 170.603 42.6874 172.325 42.6874 174.136C42.6874 175.903 42.334 177.626 41.6714 179.217C40.9646 180.851 39.9927 182.309 38.7558 183.546C37.5631 184.738 36.1054 185.754 34.4709 186.417C32.8806 187.08 31.1578 187.433 29.3908 187.433C27.5797 187.433 25.8569 187.08 24.2666 186.417C22.6321 185.754 21.1744 184.738 19.9816 183.546C18.7448 182.309 17.7729 180.851 17.0661 179.217C16.4477 177.626 16.0501 175.903 16.0501 174.136C16.0501 172.325 16.4477 170.603 17.0661 169.056C17.7729 167.422 18.7448 165.92 19.9816 164.727ZM24.7525 162.96C23.2947 163.579 21.9695 164.462 20.821 165.567C19.7166 166.715 18.8331 168.04 18.2147 169.498C17.6404 170.912 17.287 172.502 17.287 174.136C17.287 175.771 17.6404 177.317 18.2147 178.731C18.8331 180.233 19.7166 181.558 20.821 182.662C21.9695 183.767 23.2947 184.65 24.7525 185.268C26.1661 185.887 27.7122 186.196 29.3908 186.196C31.0253 186.196 32.5714 185.887 33.985 185.268C35.4427 184.65 36.768 183.767 37.9165 182.662C39.0209 181.558 39.9044 180.233 40.5228 178.731C41.0971 177.317 41.4505 175.771 41.4505 174.136C41.4505 172.502 41.0971 170.912 40.5228 169.498C39.9044 168.04 39.0209 166.715 37.9165 165.567C36.768 164.462 35.4427 163.579 33.985 162.96C32.5714 162.386 31.0253 162.033 29.3908 162.033C27.7122 162.033 26.1661 162.386 24.7525 162.96Z" fill="#BFCCE8"/>
<path fill-rule="evenodd" clip-rule="evenodd" d="M76.1713 186.903V183.855C76.1713 183.678 76.2155 183.546 76.348 183.413C76.4806 183.281 76.6131 183.236 76.7898 183.236H80.5005C80.6771 183.236 80.8538 183.281 80.9864 183.413C81.0747 183.546 81.1631 183.678 81.1631 183.855V186.903C81.1631 187.035 81.2514 187.212 81.4281 187.256C82.2233 187.462 82.9595 187.772 83.6368 188.184C84.3436 188.596 84.9915 189.082 85.5805 189.642C85.6689 189.73 85.8456 189.774 85.9781 189.686L88.6286 188.184C88.7611 188.096 88.9378 188.096 89.1145 188.096C89.2912 188.14 89.4237 188.272 89.5121 188.405L91.3674 191.63C91.4558 191.806 91.4557 191.983 91.4116 192.115C91.3674 192.292 91.2791 192.425 91.1465 192.513L88.5402 194.015C88.3635 194.103 88.3193 194.236 88.3635 194.413C88.4519 194.795 88.5108 195.193 88.5402 195.605C88.5991 196.018 88.6286 196.43 88.6286 196.842C88.6286 197.254 88.5991 197.652 88.5402 198.035C88.5108 198.447 88.4519 198.845 88.3635 199.228C88.3193 199.404 88.3635 199.537 88.4961 199.625L91.1465 201.127C91.2791 201.215 91.3674 201.348 91.4116 201.525C91.4557 201.701 91.4558 201.878 91.3674 202.011L89.5121 205.235C89.4237 205.412 89.2912 205.5 89.1145 205.544C88.9378 205.589 88.7611 205.545 88.6286 205.456L86.0223 203.954C85.8897 203.866 85.7131 203.91 85.5805 203.998C84.9915 204.558 84.3436 205.044 83.6368 205.456C82.9595 205.868 82.2233 206.192 81.4281 206.428C81.2956 206.472 81.1631 206.605 81.1631 206.737V209.785C81.1631 209.962 81.0747 210.139 80.9864 210.227C80.8538 210.36 80.6771 210.448 80.5005 210.448H76.7898C76.6131 210.448 76.4806 210.36 76.348 210.227C76.2155 210.139 76.1713 209.962 76.1713 209.785V206.737C76.1713 206.605 76.0388 206.472 75.9063 206.428C75.1112 206.192 74.3602 205.868 73.6534 205.456C72.9466 205.044 72.2987 204.558 71.7097 203.998C71.6214 203.91 71.4447 203.866 71.3121 203.954L68.7058 205.456C68.5291 205.545 68.3524 205.589 68.2199 205.544C68.0432 205.5 67.9107 205.412 67.8223 205.235L65.967 202.011C65.8787 201.878 65.8345 201.701 65.8787 201.525C65.9228 201.348 66.0112 201.215 66.1879 201.127L68.7942 199.625C68.9267 199.581 69.0151 199.404 68.9709 199.228C68.8825 198.845 68.8089 198.447 68.75 198.035C68.6911 197.652 68.6617 197.254 68.6617 196.842C68.6617 196.43 68.6911 196.018 68.75 195.605C68.8089 195.193 68.8825 194.795 68.9709 194.413C69.0151 194.28 68.9267 194.103 68.7942 194.015L66.1879 192.513C66.0112 192.425 65.9228 192.292 65.8787 192.115C65.8345 191.983 65.8787 191.806 65.967 191.63L67.7782 188.449L67.8223 188.405C67.9107 188.272 68.0432 188.14 68.2199 188.096C68.3524 188.096 68.5291 188.096 68.6617 188.184H68.7058L71.3121 189.686C71.4447 189.774 71.6214 189.774 71.7097 189.642C72.2987 189.082 72.9466 188.596 73.6534 188.184C74.3602 187.772 75.0964 187.462 75.8621 187.256C76.0388 187.212 76.1713 187.08 76.1713 186.903ZM72.9908 196.842C72.9908 198.388 73.6534 199.802 74.6694 200.818C75.6854 201.834 77.099 202.452 78.6451 202.452C80.2354 202.452 81.6048 201.834 82.665 200.818C83.681 199.802 84.2995 198.388 84.2995 196.842C84.2995 195.252 83.681 193.838 82.665 192.822C81.6048 191.806 80.2354 191.188 78.6451 191.188C77.099 191.188 75.6854 191.806 74.6694 192.822C73.6534 193.838 72.9908 195.252 72.9908 196.842Z" fill="#BFCCE8"/>
<path d="M193.146 111.807H195.399C195.929 111.807 196.371 112.249 196.371 112.779C196.371 113.309 195.929 113.75 195.399 113.75H193.146V116.048C193.146 116.578 192.704 117.019 192.174 117.019C191.644 117.019 191.203 116.578 191.203 116.048V113.75H188.905C188.375 113.75 187.934 113.309 187.934 112.779C187.934 112.249 188.375 111.807 188.905 111.807H191.203V109.554C191.203 109.024 191.644 108.582 192.174 108.582C192.704 108.582 193.146 109.024 193.146 109.554V111.807Z" fill="#BFCCE8"/>
<path fill-rule="evenodd" clip-rule="evenodd" d="M256.979 29.5095V26.4614C256.979 26.2847 257.067 26.1081 257.2 26.0197C257.288 25.8872 257.465 25.7988 257.641 25.7988H261.352C261.529 25.7988 261.705 25.8872 261.794 26.0197C261.926 26.1081 262.015 26.2847 262.015 26.4614V29.5095C262.015 29.642 262.103 29.7745 262.235 29.8187C263.031 30.0543 263.782 30.3783 264.488 30.7906C265.195 31.1734 265.843 31.6593 266.432 32.2483C266.52 32.3367 266.697 32.3808 266.83 32.2925L269.48 30.7906C269.613 30.7022 269.789 30.658 269.966 30.7022C270.099 30.7464 270.275 30.8347 270.364 31.0114L272.175 34.192L272.219 34.2362C272.307 34.3687 272.307 34.5454 272.263 34.7221C272.219 34.8988 272.131 35.0313 271.954 35.1197L269.348 36.6216C269.215 36.6658 269.127 36.8425 269.171 37.0192C269.289 37.402 269.362 37.7996 269.392 38.2119C269.451 38.5947 269.48 38.9923 269.48 39.4046C269.48 39.8169 269.451 40.2292 269.392 40.6415C269.362 41.0538 269.289 41.4514 269.171 41.8342C269.171 41.9667 269.215 42.1434 269.348 42.1876L271.954 43.7337C272.131 43.8221 272.219 43.9546 272.263 44.1313C272.307 44.2638 272.307 44.4405 272.219 44.6172L270.364 47.7978V47.842C270.275 47.9745 270.099 48.0628 269.966 48.107C269.789 48.1512 269.613 48.1512 269.48 48.0628L266.874 46.5609C266.741 46.4725 266.565 46.4725 266.432 46.6051C265.843 47.1646 265.195 47.6505 264.488 48.0628C263.782 48.4751 263.045 48.7843 262.28 48.9905C262.103 49.0347 262.015 49.1672 262.015 49.3439V52.3478C262.015 52.5245 261.926 52.7012 261.794 52.8337C261.705 52.922 261.529 53.0104 261.352 53.0104H257.641C257.465 53.0104 257.288 52.922 257.2 52.8337C257.067 52.7012 256.979 52.5245 256.979 52.3478V49.3439C256.979 49.2114 256.89 49.0347 256.758 48.9905C255.963 48.7843 255.212 48.4751 254.505 48.0628C253.798 47.6505 253.15 47.1646 252.561 46.6051C252.473 46.5167 252.296 46.4725 252.164 46.5609L249.557 48.0628H249.513C249.381 48.1512 249.204 48.1512 249.027 48.107C248.895 48.0628 248.718 47.9745 248.63 47.842L246.774 44.6172C246.686 44.4405 246.686 44.2638 246.73 44.1313C246.774 43.9546 246.863 43.8221 247.039 43.7337L249.646 42.2318C249.778 42.1434 249.867 41.9667 249.822 41.8342C249.734 41.4514 249.66 41.0538 249.602 40.6415C249.543 40.2292 249.513 39.8169 249.513 39.4046C249.513 38.9923 249.543 38.5947 249.602 38.2119C249.66 37.7996 249.734 37.402 249.822 37.0192C249.867 36.8425 249.778 36.71 249.646 36.6216L247.039 35.1197C246.863 35.0313 246.774 34.8988 246.73 34.7221C246.686 34.5454 246.686 34.3687 246.774 34.2362L248.63 31.0114C248.718 30.8347 248.895 30.7464 249.027 30.7022C249.204 30.658 249.381 30.658 249.513 30.7464V30.7906L252.164 32.2925C252.296 32.3808 252.473 32.3367 252.561 32.2483C253.15 31.6593 253.798 31.1734 254.505 30.7906C255.212 30.3783 255.948 30.0543 256.714 29.8187C256.89 29.7745 256.979 29.642 256.979 29.5095ZM253.842 39.4046C253.842 40.9949 254.505 42.4085 255.521 43.4245C256.537 44.4405 257.951 45.059 259.497 45.059C261.043 45.059 262.456 44.4405 263.472 43.4245C264.533 42.4085 265.151 40.9949 265.151 39.4046C265.151 37.8585 264.533 36.4449 263.472 35.4289C262.456 34.4129 261.043 33.7503 259.497 33.7503C257.951 33.7503 256.537 34.4129 255.521 35.4289C254.505 36.4449 253.842 37.8585 253.842 39.4046Z" fill="#BFCCE8"/>
<path d="M570.132 23.3685H572.384C572.915 23.3685 573.356 23.8103 573.356 24.3404C573.356 24.8705 572.915 25.3122 572.384 25.3122H570.132V27.5651C570.132 28.0952 569.69 28.537 569.16 28.537C568.585 28.537 568.188 28.0952 568.188 27.5651V25.3122H565.891C565.361 25.3122 564.919 24.8705 564.919 24.3404C564.919 23.8103 565.361 23.3685 565.891 23.3685H568.188V21.0714C568.188 20.5414 568.585 20.0996 569.16 20.0996C569.69 20.0996 570.132 20.5414 570.132 21.0714V23.3685Z" fill="#BFCCE8"/>
<path d="M5.6694 275.959H7.96648C8.49658 275.959 8.93832 276.401 8.93832 276.931C8.93832 277.461 8.49658 277.903 7.96648 277.903H5.6694V280.2C5.6694 280.73 5.22766 281.172 4.69756 281.172C4.16747 281.172 3.72572 280.73 3.72572 280.2V277.903H1.47282C0.942721 277.903 0.500977 277.461 0.500977 276.931C0.500977 276.401 0.942721 275.959 1.47282 275.959H3.72572V273.706C3.72572 273.176 4.16747 272.734 4.69756 272.734C5.22766 272.734 5.6694 273.176 5.6694 273.706V275.959Z" fill="#BFCCE8"/>
<path fill-rule="evenodd" clip-rule="evenodd" d="M318.779 80.7075V77.6595C318.779 77.4828 318.867 77.3502 318.999 77.2177C319.088 77.0852 319.264 77.041 319.441 77.041H323.152C323.329 77.041 323.505 77.0852 323.638 77.2177C323.726 77.3502 323.814 77.4828 323.814 77.6595V80.7075C323.814 80.84 323.903 81.0167 324.079 81.0609C324.845 81.267 325.581 81.5763 326.288 81.9886C326.995 82.4009 327.643 82.8868 328.232 83.4463C328.32 83.5347 328.497 83.5788 328.629 83.4905L331.28 81.9886C331.412 81.9002 331.589 81.9002 331.766 81.9444C331.943 81.9444 332.075 82.0769 332.163 82.2094L334.019 85.4342C334.107 85.6109 334.107 85.7876 334.063 85.9201C334.019 86.0968 333.93 86.2293 333.798 86.3177L331.192 87.8196C331.015 87.908 330.971 88.0847 330.971 88.2172C331.089 88.6 331.162 88.9976 331.192 89.4099C331.25 89.8222 331.28 90.2345 331.28 90.6468C331.28 91.0591 331.25 91.4567 331.192 91.8395C331.162 92.2518 331.089 92.6494 330.971 93.0322C330.971 93.2089 331.015 93.3414 331.147 93.4298L333.798 94.9317C333.93 95.0201 334.019 95.1526 334.063 95.3293C334.107 95.506 334.107 95.6827 334.019 95.8152L332.163 99.04C332.075 99.2167 331.943 99.305 331.766 99.3492C331.589 99.3934 331.412 99.3492 331.28 99.2608L328.674 97.7589C328.541 97.6705 328.364 97.7147 328.232 97.8031C327.643 98.3626 326.995 98.8485 326.288 99.2608C325.611 99.6731 324.875 99.9971 324.079 100.233C323.947 100.277 323.814 100.409 323.814 100.542V103.59C323.814 103.767 323.726 103.943 323.638 104.032C323.505 104.164 323.329 104.253 323.152 104.253H319.441C319.264 104.253 319.088 104.164 318.999 104.032C318.867 103.943 318.779 103.767 318.779 103.59V100.542C318.779 100.409 318.69 100.277 318.558 100.233C317.763 99.9971 317.012 99.6731 316.305 99.2608C315.598 98.8485 314.95 98.3626 314.361 97.8031C314.273 97.7147 314.096 97.6705 313.963 97.7589L311.357 99.2608C311.181 99.3492 311.004 99.3934 310.871 99.3492C310.695 99.305 310.562 99.2167 310.474 99.04L308.618 95.8152C308.53 95.6827 308.486 95.506 308.53 95.3293C308.574 95.1526 308.663 95.0201 308.839 94.9317L311.446 93.4298C311.578 93.3856 311.666 93.2089 311.622 93.0322C311.534 92.6494 311.46 92.2518 311.401 91.8395C311.342 91.4567 311.313 91.0591 311.313 90.6468C311.313 90.2345 311.342 89.8222 311.401 89.4099C311.46 88.9976 311.534 88.6 311.622 88.2172C311.666 88.0847 311.578 87.908 311.446 87.8196L308.839 86.3177C308.663 86.2293 308.574 86.0968 308.53 85.9201C308.486 85.7876 308.53 85.6109 308.618 85.4342L310.43 82.2536L310.474 82.2094C310.562 82.0769 310.695 81.9444 310.871 81.9444C311.004 81.9002 311.18 81.9002 311.313 81.9886H311.357L313.963 83.4905C314.096 83.5788 314.273 83.5789 314.361 83.4463C314.95 82.8868 315.598 82.4009 316.305 81.9886C317.012 81.5763 317.748 81.267 318.513 81.0609C318.69 81.0167 318.779 80.8842 318.779 80.7075ZM315.642 90.6468C315.642 92.1929 316.305 93.6065 317.321 94.6225C318.337 95.6385 319.75 96.257 321.296 96.257C322.887 96.257 324.256 95.6385 325.316 94.6225C326.332 93.6065 326.951 92.1929 326.951 90.6468C326.951 89.0565 326.332 87.6429 325.316 86.6269C324.256 85.6109 322.887 84.9924 321.296 84.9924C319.75 84.9924 318.337 85.6109 317.321 86.6269C316.305 87.6429 315.642 89.0565 315.642 90.6468Z" fill="#BFCCE8"/>
<path d="M279.154 85.6544H281.407C281.937 85.6544 282.379 86.0962 282.379 86.6263C282.379 87.1564 281.937 87.5981 281.407 87.5981H279.154V89.8952C279.154 90.4253 278.712 90.867 278.182 90.867C277.652 90.867 277.21 90.4253 277.21 89.8952V87.5981H274.913C274.383 87.5981 273.941 87.1564 273.941 86.6263C273.941 86.0962 274.383 85.6544 274.913 85.6544H277.21V83.4015C277.21 82.8714 277.652 82.4297 278.182 82.4297C278.712 82.4297 279.154 82.8714 279.154 83.4015V85.6544Z" fill="#BFCCE8"/>
<path d="M283.085 192.912H285.383C285.913 192.912 286.354 193.309 286.354 193.883C286.354 194.413 285.913 194.811 285.383 194.811H283.085V197.108C283.085 197.638 282.644 198.08 282.114 198.08C281.583 198.08 281.142 197.638 281.142 197.108V194.811H278.889C278.359 194.811 277.917 194.413 277.917 193.883C277.917 193.309 278.359 192.912 278.889 192.912H281.142V190.614C281.142 190.084 281.583 189.643 282.114 189.643C282.644 189.643 283.085 190.084 283.085 190.614V192.912Z" fill="#BFCCE8"/>
<path d="M198.226 144.892H200.523C201.053 144.892 201.495 145.29 201.495 145.82C201.495 146.394 201.053 146.791 200.523 146.791H198.226V149.089C198.226 149.619 197.784 150.06 197.254 150.06C196.724 150.06 196.282 149.619 196.282 149.089V146.791H194.029C193.499 146.791 193.058 146.394 193.058 145.82C193.058 145.29 193.499 144.892 194.029 144.892H196.282V142.595C196.282 142.065 196.724 141.623 197.254 141.623C197.784 141.623 198.226 142.065 198.226 142.595V144.892Z" fill="#BFCCE8"/>
<path d="M520.127 139.15H522.38C522.91 139.15 523.351 139.592 523.351 140.122C523.351 140.652 522.91 141.093 522.38 141.093H520.127V143.346C520.127 143.876 519.685 144.318 519.155 144.318C518.625 144.318 518.183 143.876 518.183 143.346V141.093H515.886C515.356 141.093 514.914 140.652 514.914 140.122C514.914 139.592 515.356 139.15 515.886 139.15H518.183V136.853C518.183 136.323 518.625 135.881 519.155 135.881C519.685 135.881 520.127 136.323 520.127 136.853V139.15Z" fill="#BFCCE8"/>
<path d="M378.105 208.283C378.105 208.283 383.847 210.183 388.397 215.705C390.96 218.841 422.456 279.139 424.488 283.071C426.52 287.002 426.52 296.942 421.749 303.038C419.894 305.423 414.549 312.049 408.718 319.294H389.855C396.702 309.001 405.67 295.572 406.288 294.512C407.348 292.745 407.878 291.022 405.979 288.018C404.035 285.059 378.856 254.313 378.856 254.313C378.856 254.313 366.443 219.68 378.105 208.283Z" fill="#0F1630" stroke="#0E1632" stroke-width="0.4"/>
<path d="M344.974 203.424C344.974 203.424 376.735 207.93 378.105 208.283C379.474 208.636 381.771 211.817 383.008 213.982C384.289 216.146 385.747 247.112 386.454 255.771C387.16 264.473 384.377 302.287 385.173 312.447C385.349 314.125 385.57 316.511 385.924 319.294H290.948C289.756 308.073 281.274 272.91 280.567 264.473C279.86 255.771 276.282 224.981 277.166 222.64C278.049 220.299 279.816 216.809 281.097 216.234C282.378 215.66 313.345 206.03 313.345 206.03L329.248 207.797L344.974 203.424Z" fill="#CEC9D0"/>
<path d="M344.974 203.424C344.974 203.424 347.095 203.733 350.231 204.175C350.084 204.94 349.716 205.662 349.127 206.339C336.802 220.475 324.212 221.491 309.723 209.564C309.046 209.005 308.575 208.357 308.31 207.62C311.313 206.649 313.345 206.03 313.345 206.03L329.248 207.797L344.974 203.424Z" fill="white"/>
<path d="M339.408 172.855L339.673 180.763C339.673 180.763 340.998 196.886 341.219 199.316C341.307 200.509 342.677 202.143 344.974 203.424C334.593 215.351 325.537 216.058 313.345 206.031C315.421 204.352 316.481 202.541 316.393 201.348C316.216 198.918 314.891 182.795 314.891 182.795L313.875 174.932C313.875 174.932 320.236 175.462 326.818 176.345C333.223 174.402 339.408 172.855 339.408 172.855Z" fill="#E8685B"/>
<path d="M378.547 208.151C379.872 208.637 384.113 211.288 384.555 213.408C384.997 215.529 388.707 237.969 388.354 252.9C387.956 267.831 389.149 292.039 390.872 303.657C391.358 306.926 392.285 312.668 393.346 319.295H350.099C344.709 291.995 339.718 266.639 339.541 264.121C339.055 258.643 343.384 226.13 343.649 222.906C343.914 219.681 347.581 203.822 347.581 203.822L378.547 208.151Z" fill="#0F1630"/>
<path d="M351.379 219.857C351.379 219.857 359.905 236.688 360.258 238.941C360.567 241.238 339.54 264.12 339.54 264.12C339.187 259.968 341.572 240.399 342.853 229.708C347.668 224.098 351.379 219.857 351.379 219.857Z" fill="#3D4155"/>
<path d="M346.52 203.645C346.52 203.645 347.492 202.805 347.801 202.805C348.155 202.761 353.853 204.705 353.853 204.705C353.853 204.705 362.158 217.781 362.291 219.459C362.423 221.138 341.882 237.968 341.882 237.968L343.693 222.596C343.693 222.596 346.653 207.532 347.58 203.821L346.52 203.645Z" fill="#545A6C"/>
<path d="M288.21 261.735C288.21 261.735 268.331 296.147 266.962 299.416C265.548 302.685 266.343 304.276 267.668 305.866C268.243 306.528 273.897 312.625 280.126 319.295H256.581C255.388 318.235 254.46 317.395 253.842 316.821C248.143 311.564 246.509 301.758 247.878 297.561C249.248 293.364 270.451 228.737 272.483 225.203C276.106 219.019 281.451 216.191 281.451 216.191C294.792 225.556 288.21 261.735 288.21 261.735Z" fill="#0F1630"/>
<path d="M310.827 206.826C310.827 206.826 317.011 221.89 317.806 225.026C318.601 228.163 328.143 259.526 328.629 265.004C328.806 267.478 328.099 292.216 327.215 319.295H284.454C284.41 316.467 284.41 314.082 284.366 312.403C284.234 300.653 281.451 276.578 278.623 261.912C275.796 247.202 275.84 224.496 275.929 222.331C276.017 220.167 279.772 216.854 280.965 216.147L310.827 206.826Z" fill="#0F1630"/>
<path d="M319.706 231.609C322.754 241.946 328.276 260.852 328.63 265.005C328.63 265.005 304.113 245.833 304.069 243.58C304.024 241.283 309.723 223.26 309.723 223.26C309.723 223.26 314.052 226.838 319.706 231.609Z" fill="#3D4155"/>
<path d="M310.827 206.825C312.329 210.315 317.718 224.716 317.718 224.716L322.047 239.603C322.047 239.603 298.988 226.351 298.856 224.672C298.723 222.993 304.819 208.725 304.819 208.725C304.819 208.725 310.12 205.898 310.474 205.854C310.783 205.809 311.843 206.516 311.843 206.516L310.827 206.825Z" fill="#545A6C"/>
<path d="M302.787 179.613L303.096 183.367C305.526 182.926 305.614 180.496 305.261 178.597C306.851 179.701 308 181.468 308.132 183.588C308.397 187.166 305.703 190.303 302.08 190.568C298.502 190.833 295.366 188.094 295.101 184.516C294.88 181.424 296.868 178.685 299.695 177.801C299.872 177.742 300.034 177.698 300.181 177.669C301.197 177.536 302.699 178.111 302.787 179.613Z" fill="#E8685B"/>
<path d="M347.138 173.385C347.286 173.385 347.433 173.399 347.58 173.429H347.624C350.54 173.782 353.014 176.124 353.323 179.216C353.72 182.794 351.158 186.019 347.58 186.416C343.958 186.814 340.733 184.208 340.335 180.629C340.115 178.553 340.91 176.565 342.279 175.24C342.323 177.184 342.809 179.525 345.283 179.525L344.885 175.77C344.709 174.268 346.078 173.429 347.138 173.385Z" fill="#E8685B"/>
<path d="M344.974 163.27L346.83 183.546C347.934 195.783 338.834 206.694 326.598 207.842C314.361 208.947 303.406 199.847 302.302 187.61L300.446 167.334C299.342 155.098 308.442 144.142 320.678 143.038C332.915 141.934 343.87 151.034 344.974 163.27Z" fill="#F4AD85"/>
<path d="M304.334 156.423C308.177 156.423 331.854 152.447 336.802 155.628C339.055 157.086 341.75 158.102 344.135 158.941C344.547 160.296 344.827 161.709 344.974 163.182C343.296 163.182 341.838 163.137 341.838 163.137L343.516 168.615L341.794 171.133C341.794 171.133 339.673 168.836 335.521 169.322C331.368 169.808 312.55 172.9 311.357 173.298C310.165 173.695 307.161 175.506 308.133 183.59C309.149 191.63 311.534 206.915 324.477 207.931C313.124 207.886 303.362 199.14 302.302 187.61L300.446 167.334C300.137 163.844 300.667 160.443 301.816 157.395C302.876 156.776 303.759 156.423 304.334 156.423Z" fill="#ED9072"/>
<path d="M341.131 165.345C342.456 160.928 327.26 159.028 327.26 159.028L314.361 158.543L308.662 160.398L303.715 166.892L306.233 170.381C306.233 170.381 306.763 175.726 304.068 177.493C303.951 177.552 303.847 177.611 303.759 177.67C303.759 177.67 303.892 179.128 304.024 180.541C304.157 181.911 303.008 183.589 301.948 183.678L301.639 180.541C301.639 180.541 300.976 178.244 298.149 178.509C298.149 178.509 288.916 170.646 288.519 166.273C288.121 161.944 295.763 143.656 298.414 142.021C301.064 140.387 304.289 142.772 304.289 142.772C304.289 142.772 307.337 136.499 310.739 134.997C314.14 133.496 334.284 132.214 344.4 139.636C354.516 147.101 357.122 162.96 349.259 173.871C346.432 174.136 346.167 176.477 346.167 176.477L346.476 179.614C345.416 179.702 344.002 178.289 343.87 176.875C343.737 175.506 343.605 174.004 343.605 174.004C343.605 174.004 339.806 169.763 341.131 165.345Z" fill="#0E1632"/>
<path d="M341.131 165.345C341.97 162.562 336.36 160.795 332.031 159.868C340.203 158.145 348.42 153.109 349.436 144.893C358.271 157.659 352.793 170.691 346.874 183.148C344.886 183.369 343.737 175.726 343.605 174.004C343.605 174.004 339.806 169.763 341.131 165.345ZM310.562 156.378C310.562 156.378 311.357 157.527 314.096 158.631L308.663 160.398L303.715 166.892L306.233 170.381C306.233 170.381 306.763 175.726 304.069 177.493C303.951 177.552 303.848 177.611 303.759 177.67C303.936 179.835 303.759 189.465 302.478 189.553C300.005 185.887 288.828 169.675 288.519 166.273C288.431 165.478 288.652 164.109 289.093 162.474C292.848 167.068 299.342 167.687 310.562 156.378Z" fill="#010518"/>
<path d="M298.325 174.358C298.325 174.358 288.96 154.081 307.779 150.592C307.779 150.592 312.77 140.741 322.754 143.214C332.782 145.688 339.01 145.6 343.516 141.227C343.516 141.227 346.078 146.042 342.942 150.282C352.395 157.615 349.126 167.025 345.239 172.105C343.693 161.591 315.995 173.297 312.373 163.181C311.975 172.856 301.859 170.426 298.325 174.358Z" fill="#0E1632"/>
<path d="M298.325 174.358C298.325 174.358 296.47 170.338 296.072 165.523C299.695 165.17 304.421 162.563 310.562 156.379C310.562 156.379 313.079 160.045 324.653 160.531C331.677 160.796 340.6 158.19 345.636 152.801C351.688 159.648 348.684 167.599 345.239 172.105C343.692 161.592 315.995 173.298 312.373 163.182C311.975 172.856 301.859 170.426 298.325 174.358Z" fill="#010518"/>
<path d="M516.68 260.718C512.483 263.148 511.114 262.75 515.664 257.759C527.37 244.904 540.976 195.296 546.895 182.574C552.815 169.895 566.642 161.723 570.617 176.566C576.051 197.019 537.53 248.659 516.68 260.718Z" fill="#05304B"/>
<path d="M561.782 174.798C561.871 174.445 562.224 174.268 562.578 174.356C562.887 174.445 563.064 174.798 562.975 175.107C562.931 175.328 546.145 235.097 514.516 261.822C513.323 262.308 512.704 262.308 512.837 261.601C544.731 235.582 561.738 174.975 561.782 174.798Z" fill="#0076BD"/>
<path d="M513.898 265.138C511.159 268.141 509.966 268.141 512.308 263.061C518.404 249.853 516.681 206.915 518.183 195.298C519.685 183.68 528.652 173.652 535.588 184.475C545.085 199.406 527.46 250.251 513.898 265.138Z" fill="#0076BD"/>
<path d="M528.122 185.314C528.078 185.005 528.298 184.784 528.608 184.74C528.873 184.74 529.138 184.961 529.138 185.27C529.138 185.447 530.861 237.264 512.44 266.552C511.645 267.258 511.114 267.391 511.07 266.817C529.845 238.015 528.122 185.447 528.122 185.314Z" fill="#05304B"/>
<path d="M569.823 221.316C581.75 222.598 577.156 234.26 568.056 240.356C558.956 246.496 522.379 263.017 513.897 273.619C510.629 277.727 510.098 276.711 511.468 273.222C518.271 255.64 553.39 219.638 569.823 221.316Z" fill="#0076BD"/>
<path d="M511.247 276.269C510.761 276.446 510.673 275.96 510.894 274.988C527.68 247.335 571.722 227.103 571.855 227.059C572.12 226.926 572.385 227.015 572.517 227.28C572.606 227.501 572.517 227.81 572.252 227.898C572.12 227.987 527.459 248.484 511.247 276.269Z" fill="#05304B"/>
<path d="M437.033 215.441L436.282 319.296H403.019C400.81 293.498 396.349 232.449 396.349 232.449L399.308 206.43L437.033 215.441Z" fill="#0E1632"/>
<path d="M453.864 229.267C456.691 230.018 464.82 240.444 464.82 247.467C464.82 254.447 463.804 284.088 460.756 305.424C460.225 308.87 459.651 313.685 458.944 319.295H418.392L415.477 238.235L416.934 229.002C416.934 229.002 451.081 228.516 453.864 229.267Z" fill="#0E1632"/>
<path d="M413.489 125.987C411.943 129.035 379.739 167.158 380.888 170.25C382.036 173.298 400.104 216.147 400.634 217.208C401.164 218.224 400.811 218.754 400.811 218.754C399.927 220.344 391.622 225.954 391.048 225.38C390.518 224.761 375.322 196.666 368.21 185.225C361.098 173.784 360.612 165.567 361.849 160.929C363.085 156.247 399.795 102.221 400.899 101.735C402.003 101.249 403.373 103.811 403.373 103.811C420.954 106.948 415.035 122.939 413.489 125.987Z" fill="#171C3A"/>
<path d="M445.118 91.9278C446.664 93.6947 449.712 109.951 448.431 116.798C447.15 123.645 421.529 167.29 419.232 173.386C416.935 179.482 400.943 173.165 400.943 173.165C400.943 173.165 405.317 148.515 405.361 146.483C405.405 144.451 416.802 99.7908 416.802 99.7908L432.793 88.3496C432.793 88.3496 443.616 90.1166 445.118 91.9278Z" fill="#C9C4D1"/>
<path d="M414.46 106.02L404.786 171.751C404.786 171.751 408.497 217.693 407.348 220.741C406.2 223.789 391.975 250.603 390.739 250.603C389.457 250.603 388.972 249.587 389.06 248.659C389.192 247.776 394.67 193.839 394.67 189.509C394.67 185.225 390.474 136.323 391.092 133.673C391.755 131.022 399.573 102.486 400.899 101.735C402.224 100.984 416.713 95.8594 416.713 95.8594L414.46 106.02Z" fill="#171C3A"/>
<path d="M459.695 103.105C459.695 103.105 480.457 124.044 481.252 125.281C482.003 126.562 460.402 198.037 460.181 201.35C459.916 204.619 470.827 253.255 471.224 254.536C471.224 254.536 471.269 255.022 470.915 255.773C470.518 256.568 469.634 257.01 469.192 257.319C468.751 257.628 417.95 249.456 413.886 246.894C409.822 244.376 401.075 204.884 401.075 199.539C401.075 194.238 404.167 173.829 404.167 173.829L429.126 131.51C429.126 131.51 447.193 104.431 459.695 103.105Z" fill="#1C2344"/>
<path d="M456.426 99.8359C456.426 99.8359 480.457 124.044 481.253 125.281C482.004 126.562 460.402 198.036 460.181 201.349C459.916 204.618 470.827 253.254 471.225 254.535C471.225 254.535 471.269 255.021 470.916 255.772C470.518 256.567 469.635 257.009 469.193 257.318C468.972 257.495 455.455 255.375 441.805 252.989C453.643 235.938 453.025 207.71 452.009 205.987C450.772 204 444.455 199.671 445.427 199.361C446.399 199.008 452.848 198.875 453.334 197.285C453.82 195.651 462.964 145.071 462.964 145.071L469.016 140.962C469.016 140.962 471.755 121.261 469.811 118.389C467.912 115.518 455.234 104.651 455.145 104.563C456.736 103.767 454.969 99.9685 456.426 99.8359Z" fill="#101937"/>
<path d="M478.337 122.1C478.337 122.1 481.473 124.618 483.638 127.445C485.846 130.272 512.925 186.904 513.456 192.205C514.03 197.55 512.042 206.473 502.279 217.782C492.517 229.09 471.048 257.186 470.341 257.76C469.634 258.334 461.506 250.736 460.799 248.881C460.799 248.881 460.49 248.218 461.285 247.158C462.036 246.098 489.248 202.321 491.015 199.14C492.782 196.004 464.113 148.649 462.964 145.07C461.771 141.448 458.547 122.497 478.337 122.1Z" fill="#383D5D"/>
<path d="M447.989 68.4727C448.166 76.3799 446.09 84.5522 446.62 92.5036C446.708 94.0939 447.503 94.624 449.491 95.9492C452.274 100.057 444.72 113.045 439.729 113.84C439.419 113.884 431.291 107.523 425.593 106.065C422.633 105.314 420.203 109.069 419.983 108.892C418.79 108.009 421.352 101.294 420.513 98.7322C421.529 98.4672 422.456 96.2143 423.163 95.5517C427.802 91.2667 426.3 80.5765 422.456 76.5566C419.629 73.5527 447.989 68.4727 447.989 68.4727Z" fill="#ED9072"/>
<path d="M453.246 99.0405C452.627 100.807 437.255 121.304 437.255 121.304C437.255 121.304 436.725 122.055 435.929 121.128C435.134 120.2 425.637 106.992 425.637 106.992L446.664 91.3541L446.178 87.7318C446.487 87.4226 453.908 97.1852 453.246 99.0405Z" fill="white"/>
<path d="M425.372 106.86C422.368 109.511 418.039 116.181 418.039 116.181C416.758 112.161 417.862 91.841 425.019 92.3269C425.077 92.3564 425.107 92.3711 425.107 92.3711C422.501 96.4793 426.741 105.668 425.372 106.86Z" fill="white"/>
<path d="M457.487 100.895C457.398 101.514 452.981 123.336 452.097 123.38C451.214 123.469 441.451 122.011 441.451 122.011C441.451 122.011 444.72 129.388 444.853 129.83C445.029 130.271 444.72 130.934 444.72 130.934C444.72 130.934 432.97 140.697 429.789 143.215C426.609 145.777 404.168 173.828 404.168 173.828C406.2 166.45 420.778 132.038 422.677 129.255C424.577 126.472 451.435 93.209 451.435 93.209C451.435 93.209 457.619 100.233 457.487 100.895Z" fill="#383D5D"/>
<path d="M423.56 95.3742C423.56 95.3742 419.143 101.824 417.508 105.888C415.874 109.952 404.786 171.752 404.786 171.752C404.786 171.752 406.067 115.871 406.023 115.253C405.935 114.679 406.332 114.546 406.332 114.546C406.332 114.546 409.645 114.148 409.469 113.972C409.292 113.795 407.392 112.602 406.907 112.337C406.376 112.116 406.509 111.498 406.509 111.498C406.774 110.217 415.786 95.2417 416.934 94.6233C418.083 93.9606 425.151 92.3262 425.151 92.3262L423.56 95.3742Z" fill="#383D5D"/>
<path d="M413.091 56.9434C416.581 56.9434 419.453 59.7705 419.453 63.2603C419.453 66.7501 416.67 69.5773 413.136 69.6215C409.646 69.6215 406.819 66.8385 406.774 63.3045C406.774 59.8147 409.602 56.9875 413.091 56.9434Z" fill="#E8685B"/>
<path d="M455.322 56.7212C458.856 56.677 461.683 59.5042 461.683 62.994C461.727 66.4838 458.9 69.3551 455.41 69.3551C451.921 69.3993 449.049 66.5722 449.049 63.0824C449.005 59.5926 451.832 56.7212 455.322 56.7212Z" fill="#E8685B"/>
<path d="M432.042 24.4302C443.969 24.3419 453.776 34.8996 453.82 47.9311L453.953 69.4C453.997 82.4315 444.322 93.1217 432.395 93.2101C420.468 93.2542 410.617 82.6965 410.573 69.665L410.441 48.1962C410.396 35.1647 420.115 24.4744 432.042 24.4302Z" fill="#F4AD85"/>
<path d="M452.981 41.5259C453.511 43.5579 453.82 45.7225 453.82 47.9312L453.952 69.4001C453.997 81.3714 445.824 91.399 435.222 92.9893C434.162 93.0776 433.5 93.166 433.367 93.166C445.206 92.0175 447.68 76.4238 447.68 71.7413C447.68 67.0588 447.68 71.0787 447.68 59.5491C447.68 48.0637 441.318 46.871 436.989 46.871C432.616 46.871 418.127 46.871 415.344 46.871C412.561 46.871 411.545 49.4331 411.545 49.4331L410.485 48.5938L410.44 48.1963C410.44 41.305 413.135 35.0764 417.464 30.7031C428.331 32.8235 446.354 36.4458 447.635 37.1968C448.298 37.6385 450.507 39.4497 452.981 41.5259Z" fill="#ED9072"/>
<path d="M411.059 27.8756C414.505 26.0203 444.676 42.8508 428.994 40.5979C413.268 38.3891 411.413 45.6338 411.413 45.6338L407.525 41.7464C404.654 35.1202 407.658 29.6868 411.059 27.8756Z" fill="#01020E"/>
<path d="M448.298 42.0995C448.298 42.0995 432.837 43.7781 424.974 38.7864C417.111 33.7947 410.441 31.4534 408.453 34.1922C406.509 36.7544 414.24 43.6898 411.147 55.5286C410.971 56.1912 410.573 67.1023 410.308 67.7649C410.264 63.48 408.85 52.5689 407.437 49.83C403.24 41.6577 396.614 35.5175 405.184 23.2811C410.485 15.7714 419.452 12.2375 423.605 16.0365C437.166 28.4495 455.852 12.3258 455.94 32.867C455.94 32.867 466.012 36.2684 456.691 56.8538C454.571 56.8538 453.908 58.4441 453.908 59.8135L453.997 70.813C446.443 70.813 446.266 50.9786 448.298 42.0995Z" fill="#0E1632"/>
<path d="M437.785 307.278V232.093C437.785 229.973 439.552 228.25 441.672 228.25H485.405C487.526 228.25 489.249 229.973 489.249 232.093V307.278C489.249 309.399 487.526 311.122 485.405 311.122H441.672C439.552 311.122 437.785 309.399 437.785 307.278Z" fill="#E2E1E7"/>
<path d="M483.107 307.897V231.475C483.107 229.708 484.565 228.25 486.376 228.25H521.716C523.527 228.25 524.985 229.708 524.985 231.475V307.897C524.985 309.664 523.527 311.122 521.716 311.122H486.376C484.565 311.122 483.107 309.664 483.107 307.897Z" fill="white"/>
<path d="M437.785 250.691H483.108C483.108 250.691 474.361 251.575 474.361 259.703H429.038C429.038 251.575 437.785 250.691 437.785 250.691Z" fill="white"/>
<path d="M437.785 297.781H484.698C486.112 297.781 487.216 298.93 487.216 300.299V316.776C487.216 318.146 486.112 319.294 484.698 319.294H437.785C436.415 319.294 435.267 318.146 435.267 316.776V300.299C435.267 298.93 436.415 297.781 437.785 297.781Z" fill="#B92F6D"/>
<path d="M483.24 297.781H493.488H493.533C493.753 297.781 496.271 297.87 497.685 300.962C499.143 304.142 499.01 307.367 503.383 307.367C507.492 307.367 501.528 307.367 505.239 307.367C509.612 307.367 509.524 304.098 510.937 300.962C512.395 297.825 514.869 297.781 515.09 297.781H515.134H524.852C526.266 297.781 527.414 298.93 527.414 300.299V316.776C527.414 318.146 526.266 319.294 524.852 319.294H483.24C481.826 319.294 480.678 318.146 480.678 316.776V300.299C480.678 298.93 481.826 297.781 483.24 297.781Z" fill="#E74D91"/>
<path d="M437.785 279.094H483.108C483.108 279.094 474.361 279.977 474.361 288.105H429.038C429.038 279.977 437.785 279.094 437.785 279.094Z" fill="white"/>
<path d="M532.362 274.589H491.147C491.147 266.461 483.107 265.533 483.107 265.533H524.322C524.322 265.533 532.362 266.461 532.362 274.589Z" fill="#ACABBB"/>
<path d="M489.69 237.217H521.275C522.026 237.217 522.644 237.879 522.644 238.63C522.644 239.381 522.026 240 521.275 240H489.69C488.895 240 488.276 239.381 488.276 238.63C488.276 237.879 488.895 237.217 489.69 237.217Z" fill="#E2E1E7"/>
<path d="M489.69 252.59H521.275C522.026 252.59 522.644 253.208 522.644 253.959C522.644 254.754 522.026 255.373 521.275 255.373H489.69C488.895 255.373 488.276 254.754 488.276 253.959C488.276 253.208 488.895 252.59 489.69 252.59Z" fill="#E2E1E7"/>
<path d="M489.69 284.617H521.275C522.026 284.617 522.644 285.236 522.644 286.031C522.644 286.782 522.026 287.4 521.275 287.4H489.69C488.895 287.4 488.276 286.782 488.276 286.031C488.276 285.236 488.895 284.617 489.69 284.617Z" fill="#E2E1E7"/>
<path d="M444.499 236.113H475.024C475.775 236.113 476.393 236.732 476.393 237.483C476.393 238.278 475.775 238.896 475.024 238.896H444.499C443.748 238.896 443.13 238.278 443.13 237.483C443.13 236.732 443.748 236.113 444.499 236.113Z" fill="#ACABBB"/>
<path d="M444.499 270.658H475.024C475.775 270.658 476.393 271.277 476.393 272.072C476.393 272.823 475.775 273.441 475.024 273.441H444.499C443.748 273.441 443.13 272.823 443.13 272.072C443.13 271.277 443.748 270.658 444.499 270.658Z" fill="#ACABBB"/>
<path d="M444.499 292.789H475.024C475.775 292.789 476.393 293.408 476.393 294.158C476.393 294.954 475.775 295.572 475.024 295.572H444.499C443.748 295.572 443.13 294.954 443.13 294.158C443.13 293.408 443.748 292.789 444.499 292.789Z" fill="#ACABBB"/>
<path d="M416.891 312.005V266.505C416.891 265.224 417.951 264.164 419.232 264.164H445.692C446.974 264.164 448.034 265.224 448.034 266.505V312.005C448.034 313.286 446.974 314.346 445.692 314.346H419.232C417.951 314.346 416.891 313.286 416.891 312.005Z" fill="#E2E1E7"/>
<path d="M444.323 312.403V266.152C444.323 265.048 445.207 264.164 446.311 264.164H467.692C468.796 264.164 469.679 265.048 469.679 266.152V312.403C469.679 313.463 468.796 314.346 467.692 314.346H446.311C445.207 314.346 444.323 313.463 444.323 312.403Z" fill="white"/>
<path d="M416.891 277.77H444.323C444.323 277.77 439.022 278.3 439.022 283.247H411.634C411.634 278.3 416.891 277.77 416.891 277.77Z" fill="white"/>
<path d="M416.891 306.262H445.295C446.134 306.262 446.841 306.969 446.841 307.808V317.747C446.841 318.586 446.134 319.293 445.295 319.293H416.891C416.051 319.293 415.389 318.586 415.389 317.747V307.808C415.389 306.969 416.051 306.262 416.891 306.262Z" fill="#B92F6D"/>
<path d="M444.411 306.262H450.64C450.772 306.262 452.274 306.35 453.158 308.205C454.041 310.149 453.953 312.093 456.604 312.093C459.077 312.093 455.455 312.093 457.708 312.093C460.358 312.093 460.314 310.105 461.154 308.205C462.037 306.306 463.539 306.262 463.671 306.262H463.716H469.591C470.43 306.262 471.137 306.969 471.137 307.808V317.747C471.137 318.586 470.43 319.293 469.591 319.293H444.411C443.572 319.293 442.865 318.586 442.865 317.747V307.808C442.865 306.969 443.572 306.262 444.411 306.262Z" fill="#E74D91"/>
<path d="M416.891 294.953H444.323C444.323 294.953 439.022 295.527 439.022 300.431H411.634C411.634 295.527 416.891 294.953 416.891 294.953Z" fill="white"/>
<path d="M474.141 292.215H449.182C449.182 287.311 444.323 286.781 444.323 286.781H469.282C469.282 286.781 474.141 287.311 474.141 292.215Z" fill="#ACABBB"/>
<path d="M448.299 269.643H467.427C467.869 269.643 468.266 269.996 468.266 270.482C468.266 270.924 467.869 271.321 467.427 271.321H448.299C447.857 271.321 447.46 270.924 447.46 270.482C447.46 269.996 447.857 269.643 448.299 269.643Z" fill="#E2E1E7"/>
<path d="M448.299 278.918H467.427C467.869 278.918 468.266 279.316 468.266 279.757C468.266 280.243 467.869 280.597 467.427 280.597H448.299C447.857 280.597 447.46 280.243 447.46 279.757C447.46 279.316 447.857 278.918 448.299 278.918Z" fill="#E2E1E7"/>
<path d="M448.299 298.311H467.427C467.869 298.311 468.266 298.708 468.266 299.15C468.266 299.636 467.869 299.989 467.427 299.989H448.299C447.857 299.989 447.46 299.636 447.46 299.15C447.46 298.708 447.857 298.311 448.299 298.311Z" fill="#E2E1E7"/>
<path d="M420.955 268.936H439.42C439.905 268.936 440.259 269.333 440.259 269.775C440.259 270.261 439.905 270.658 439.42 270.658H420.955C420.513 270.658 420.115 270.261 420.115 269.775C420.115 269.333 420.513 268.936 420.955 268.936Z" fill="#ACABBB"/>
<path d="M420.955 289.873H439.42C439.905 289.873 440.259 290.226 440.259 290.712C440.259 291.154 439.905 291.552 439.42 291.552H420.955C420.513 291.552 420.115 291.154 420.115 290.712C420.115 290.226 420.513 289.873 420.955 289.873Z" fill="#ACABBB"/>
<path d="M420.955 303.258H439.42C439.905 303.258 440.259 303.611 440.259 304.097C440.259 304.539 439.905 304.936 439.42 304.936H420.955C420.513 304.936 420.115 304.539 420.115 304.097C420.115 303.611 420.513 303.258 420.955 303.258Z" fill="#ACABBB"/>
<path fill-rule="evenodd" clip-rule="evenodd" d="M122.423 196.002L158.602 196.179C159.087 196.179 159.485 196.576 159.485 197.062V200.861C159.485 201.303 159.087 201.7 158.602 201.7L122.423 201.524C121.937 201.524 121.539 201.17 121.539 200.684V196.885C121.539 196.4 121.937 196.002 122.423 196.002ZM157.762 197.901L123.262 197.769V199.801L157.762 199.978V197.901Z" fill="#0E1632"/>
<path fill-rule="evenodd" clip-rule="evenodd" d="M74.8455 250.117L122.687 195.606C122.996 195.252 123.526 195.208 123.879 195.517L126.751 198.035C127.104 198.344 127.148 198.875 126.839 199.228L78.9979 253.739C78.6887 254.093 78.1144 254.137 77.761 253.828L74.9338 251.354C74.5804 251.001 74.5362 250.471 74.8455 250.117ZM123.393 197.417L76.7008 250.603L78.2469 251.972L124.939 198.742L123.393 197.417Z" fill="#0E1632"/>
<path d="M122.908 194.059C125.558 193.75 127.944 195.605 128.297 198.256C128.606 200.906 126.751 203.292 124.101 203.645C121.45 203.954 119.065 202.099 118.711 199.448C118.402 196.798 120.257 194.412 122.908 194.059Z" fill="#383D5D"/>
<path fill-rule="evenodd" clip-rule="evenodd" d="M75.1997 249.189L78.557 247.466C78.9545 247.245 79.4846 247.378 79.7055 247.82L113.322 312.05C113.543 312.491 113.411 313.021 112.969 313.242L109.612 315.009C109.17 315.186 108.684 315.053 108.463 314.612L74.8021 250.382C74.5812 249.94 74.7579 249.41 75.1997 249.189ZM111.423 312.094L78.557 249.366L76.7458 250.338L109.568 313.066L111.423 312.094Z" fill="#0E1632"/>
<path d="M105.503 309.929C106.475 307.455 109.258 306.218 111.732 307.146C114.206 308.118 115.487 310.901 114.515 313.375C113.587 315.848 110.804 317.129 108.286 316.158C105.813 315.23 104.576 312.447 105.503 309.929Z" fill="#383D5D"/>
<path d="M77.5846 245.744C80.1909 245.391 82.6205 247.246 82.9739 249.897C83.2831 252.547 81.4278 254.977 78.7773 255.286C76.1269 255.639 73.7414 253.74 73.388 251.134C73.0346 248.483 74.9341 246.054 77.5846 245.744Z" fill="#383D5D"/>
<path d="M60.6221 318.19C60.6221 314.833 63.3609 312.094 66.7182 312.094H133.908C137.265 312.094 140.004 314.833 140.004 318.19C140.004 321.503 137.265 324.286 133.908 324.286H66.7182C63.3609 324.286 60.6221 321.503 60.6221 318.19Z" fill="#383D5D"/>
<path d="M84.5645 318.19C84.5645 314.833 87.3033 312.094 90.6606 312.094H157.85C161.207 312.094 163.946 314.833 163.946 318.19C163.946 321.503 161.207 324.286 157.85 324.286H90.6606C87.3033 324.286 84.5645 321.503 84.5645 318.19Z" fill="#0E1632"/>
<path d="M141.506 199.051H177.862C177.862 204.175 173.665 208.372 168.541 208.372H150.827C145.702 208.372 141.506 204.175 141.506 199.051Z" fill="white"/>
<path d="M145.569 200.906H167.436C167.436 203.998 164.874 206.516 161.781 206.516H151.18C148.087 206.516 145.569 203.998 145.569 200.906Z" fill="#DFF0F2"/>
<path d="M144.863 194.766H174.504C178.436 194.766 181.617 197.946 181.617 201.878H137.707C137.707 197.946 140.932 194.766 144.863 194.766Z" fill="#383D5D"/>
<path d="M144.863 194.766H158.425C162.356 194.766 165.581 197.946 165.581 201.878H137.707C137.707 197.946 140.932 194.766 144.863 194.766Z" fill="#01020E"/>
<path d="M502.412 61.8435C502.191 62.1527 501.793 62.1969 501.484 62.0202C501.175 61.7993 501.131 61.4018 501.352 61.0925C503.914 57.5144 507.271 54.5547 511.203 52.5668C515.002 50.579 519.331 49.4746 523.881 49.4746C531.523 49.4746 538.458 52.611 543.45 57.6027C548.486 62.5945 551.578 69.5299 551.578 77.1721C551.578 84.8143 548.486 91.7497 543.45 96.7856C538.458 101.777 531.523 104.87 523.881 104.87C517.431 104.87 511.512 102.705 506.829 98.9943C502.014 95.2837 498.48 89.9827 496.978 83.8424C496.89 83.5332 497.111 83.1356 497.464 83.0915C497.818 83.0031 498.171 83.1798 498.26 83.5332C499.717 89.3643 503.075 94.4002 507.625 97.9783C512.13 101.468 517.741 103.588 523.881 103.588C531.17 103.588 537.752 100.629 542.522 95.8579C547.293 91.0871 550.253 84.4609 550.253 77.1721C550.253 69.8833 547.293 63.3013 542.522 58.5304C537.752 53.7595 531.17 50.7998 523.881 50.7998C519.508 50.7998 515.443 51.86 511.821 53.7154C508.066 55.659 504.842 58.4421 502.412 61.8435Z" fill="#0E1632"/>
<path fill-rule="evenodd" clip-rule="evenodd" d="M531.435 72.1364C532.981 66.3495 535.896 64.1408 536.205 63.9199C536.382 63.7432 536.647 63.7432 536.824 63.8757C539.209 65.2451 540.579 66.9679 541.286 68.6466C542.302 70.9878 541.992 73.2849 541.33 74.5218L529.977 94.1795C529.226 95.4605 527.371 96.83 524.853 97.1392C523.041 97.3601 520.877 97.0508 518.491 95.7256C518.271 95.5931 518.138 95.4164 518.182 95.1513C518.182 95.1513 518.491 91.3523 522.909 86.8907C523.086 86.714 523.351 86.6256 523.616 86.7582C523.616 86.8023 527.371 88.9669 528.519 87.0232L534.306 76.9072C535.41 75.0519 532.009 72.9757 531.7 72.799C531.479 72.6665 531.346 72.4014 531.435 72.1364ZM536.603 65.0243C535.852 65.6427 533.864 67.7189 532.627 72.048C533.732 72.7548 536.691 75.0519 535.322 77.4815L529.447 87.5975C528.033 89.9829 524.588 88.5251 523.439 87.9509C520.303 91.2198 519.552 93.9586 519.331 94.8863C521.363 95.9465 523.174 96.2115 524.72 96.0348C526.885 95.7698 528.387 94.6212 528.961 93.6494L540.314 73.9917C540.888 72.9757 541.109 71.0762 540.27 69.0883C539.651 67.6747 538.503 66.2611 536.603 65.0243Z" fill="#0E1632"/>
<path d="M348.376 31.5859H386.101C389.326 31.5859 391.977 34.2364 391.977 37.4612V53.099V54.9101V70.3271C391.977 70.5921 391.844 70.813 391.579 70.9455C391.358 71.0338 391.049 70.9897 390.872 70.7688L380.845 60.7853H348.376C345.151 60.7853 342.501 58.1349 342.501 54.9101V37.4612C342.501 34.2364 345.151 31.5859 348.376 31.5859Z" fill="#BFCCE8"/>
<path fill-rule="evenodd" clip-rule="evenodd" d="M343.914 27.7422H381.639C383.495 27.7422 385.173 28.4932 386.366 29.73C387.559 30.9228 388.31 32.6014 388.31 34.4125V67.2784C388.31 67.5877 388.221 67.8527 388.089 68.0736C387.912 68.2945 387.691 68.4712 387.426 68.6037C387.161 68.692 386.852 68.7362 386.587 68.692C386.322 68.6331 386.086 68.5006 385.88 68.2945L376.073 58.4877H343.914C342.103 58.4877 340.424 57.7367 339.232 56.544C338.039 55.3513 337.288 53.6727 337.288 51.8615V34.4125C337.288 32.6014 338.039 30.9228 339.232 29.73C340.424 28.4932 342.103 27.7422 343.914 27.7422ZM381.639 29.3325H343.914C342.545 29.3325 341.264 29.9067 340.336 30.8344C339.408 31.7179 338.834 32.999 338.834 34.4125V51.8615C338.834 53.2309 339.408 54.512 340.336 55.4397C341.264 56.3673 342.545 56.9416 343.914 56.9416H376.736L386.764 66.9692V34.4125C386.764 32.999 386.189 31.7179 385.262 30.8344C384.334 29.9067 383.053 29.3325 381.639 29.3325Z" fill="white"/>
<path d="M343.605 34.28C343.384 34.28 343.207 34.0591 343.207 33.8382C343.207 33.6174 343.384 33.3965 343.605 33.3965H381.948C382.213 33.3965 382.39 33.6174 382.39 33.8382C382.39 34.0591 382.213 34.28 381.948 34.28H343.605Z" fill="white"/>
<path d="M343.605 38.3881C343.384 38.3881 343.207 38.2114 343.207 37.9906C343.207 37.7255 343.384 37.5488 343.605 37.5488H347.669C347.934 37.5488 348.11 37.7255 348.11 37.9906C348.11 38.2114 347.934 38.3881 347.669 38.3881H343.605ZM353.102 38.3881C352.837 38.3881 352.66 38.2114 352.66 37.9906C352.66 37.7255 352.837 37.5488 353.102 37.5488H381.948C382.213 37.5488 382.39 37.7255 382.39 37.9906C382.39 38.2114 382.213 38.3881 381.948 38.3881H353.102Z" fill="white"/>
<path d="M343.605 42.5405C343.384 42.5405 343.207 42.3638 343.207 42.1429C343.207 41.8779 343.384 41.7012 343.605 41.7012H381.948C382.213 41.7012 382.39 41.8779 382.39 42.1429C382.39 42.3638 382.213 42.5405 381.948 42.5405H343.605Z" fill="white"/>
<path d="M354.295 48.1499C354.03 48.1499 353.854 47.9732 353.854 47.7523C353.854 47.4872 354.03 47.3105 354.295 47.3105H381.949C382.214 47.3105 382.39 47.4872 382.39 47.7523C382.39 47.9732 382.214 48.1499 381.949 48.1499H354.295Z" fill="white"/>
<path d="M366.664 52.6557C366.399 52.6557 366.223 52.479 366.223 52.2582C366.223 51.9931 366.399 51.8164 366.664 51.8164H381.949C382.214 51.8164 382.391 51.9931 382.391 52.2582C382.391 52.479 382.214 52.6557 381.949 52.6557H366.664Z" fill="white"/>
<path d="M357.873 52.6557C357.653 52.6557 357.432 52.479 357.432 52.2582C357.432 51.9931 357.653 51.8164 357.873 51.8164H363.351C363.572 51.8164 363.749 51.9931 363.749 52.2582C363.749 52.479 363.572 52.6557 363.351 52.6557H357.873Z" fill="white"/>
<path d="M566.156 325.965H568.453C568.983 325.965 569.425 326.407 569.425 326.937C569.425 327.467 568.983 327.909 568.453 327.909H566.156V330.162C566.156 330.736 565.714 331.133 565.184 331.133C564.654 331.133 564.212 330.736 564.212 330.162V327.909H561.959C561.429 327.909 560.987 327.467 560.987 326.937C560.987 326.407 561.429 325.965 561.959 325.965H564.212V323.712C564.212 323.138 564.654 322.74 565.184 322.74C565.714 322.74 566.156 323.138 566.156 323.712V325.965Z" fill="#BFCCE8"/>
<path d="M191.599 309.796C192.483 310.68 193.057 311.917 193.057 313.286C193.057 314.611 192.483 315.848 191.599 316.732C190.716 317.615 189.479 318.19 188.154 318.19H155.332C153.963 318.19 152.77 317.615 151.886 316.732C150.959 315.848 150.429 314.611 150.429 313.286C150.429 311.917 150.959 310.68 151.886 309.796C152.77 308.913 153.963 308.383 155.332 308.383H188.154C189.479 308.383 190.716 308.913 191.599 309.796Z" fill="#0076BD"/>
<path d="M114.736 308.957H156.702C159.088 308.957 161.031 310.901 161.031 313.286C161.031 315.672 159.088 317.615 156.702 317.615H114.736V308.957Z" fill="white"/>
<path d="M156.702 308.383C158.071 308.383 159.264 308.913 160.192 309.796C161.075 310.68 161.605 311.917 161.605 313.286C161.605 314.611 161.075 315.848 160.192 316.732C159.264 317.615 158.071 318.19 156.702 318.19H114.736C114.427 318.19 114.206 317.925 114.206 317.615C114.206 317.306 114.427 317.041 114.736 317.041H156.702C157.762 317.041 158.69 316.599 159.352 315.937C160.059 315.23 160.457 314.302 160.457 313.286C160.457 312.226 160.059 311.298 159.352 310.636C158.69 309.929 157.762 309.531 156.702 309.531H114.736C114.427 309.531 114.206 309.266 114.206 308.957C114.206 308.604 114.427 308.383 114.736 308.383H156.702Z" fill="#004A82"/>
<path d="M186.608 313.286C186.608 311.917 186.078 310.68 185.195 309.796C184.311 308.913 183.074 308.383 181.705 308.383H185.99C187.315 308.383 188.552 308.913 189.436 309.796C190.319 310.68 190.893 311.917 190.893 313.286C190.893 314.611 190.319 315.848 189.436 316.732C188.552 317.615 187.315 318.19 185.99 318.19H181.705C183.074 318.19 184.311 317.615 185.195 316.732C186.078 315.848 186.608 314.611 186.608 313.286Z" fill="#004A82"/>
<path d="M180.424 313.286C180.424 311.917 179.894 310.68 179.01 309.796C178.127 308.913 176.89 308.383 175.521 308.383H179.805C181.175 308.383 182.368 308.913 183.251 309.796C184.179 310.68 184.709 311.917 184.709 313.286C184.709 314.611 184.179 315.848 183.251 316.732C182.368 317.615 181.175 318.19 179.805 318.19H175.521C176.89 318.19 178.127 317.615 179.01 316.732C179.894 315.848 180.424 314.611 180.424 313.286Z" fill="#004A82"/>
<path d="M123.394 299.768H152.108C153.301 299.768 154.361 300.253 155.156 301.049C155.907 301.8 156.393 302.904 156.393 304.052C156.393 305.245 155.907 306.35 155.156 307.101C154.361 307.896 153.301 308.382 152.108 308.382H123.394C122.202 308.382 121.141 307.896 120.346 307.101C119.551 306.35 119.109 305.245 119.109 304.052C119.109 302.904 119.551 301.8 120.346 301.049C121.141 300.253 122.202 299.768 123.394 299.768Z" fill="#E74D91"/>
<path d="M187.624 307.853H150.915C148.795 307.853 147.116 306.174 147.116 304.054C147.116 301.977 148.795 300.299 150.915 300.299H187.624V307.853Z" fill="white"/>
<path d="M187.624 299.768C187.933 299.768 188.154 299.988 188.154 300.298C188.154 300.563 187.933 300.784 187.624 300.784H150.915C149.987 300.784 149.192 301.137 148.574 301.755C148 302.33 147.602 303.169 147.602 304.052C147.602 304.98 148 305.819 148.574 306.394C149.192 307.012 149.987 307.366 150.915 307.366H187.624C187.933 307.366 188.154 307.586 188.154 307.852C188.154 308.161 187.933 308.382 187.624 308.382H150.915C149.722 308.382 148.662 307.896 147.867 307.101C147.072 306.35 146.586 305.245 146.586 304.052C146.586 302.904 147.072 301.8 147.867 301.049C148.662 300.253 149.722 299.768 150.915 299.768H187.624Z" fill="#B92F6D"/>
<path d="M125.957 307.101C126.752 307.896 127.812 308.382 129.005 308.382H125.25C124.101 308.382 122.997 307.896 122.246 307.101C121.451 306.35 120.965 305.245 120.965 304.052C120.965 302.904 121.451 301.8 122.246 301.049C122.997 300.253 124.101 299.768 125.25 299.768H129.005C127.812 299.768 126.752 300.253 125.957 301.049C125.206 301.8 124.72 302.904 124.72 304.052C124.72 305.245 125.206 306.35 125.957 307.101Z" fill="#B92F6D"/>
<path d="M131.39 307.101C132.141 307.896 133.246 308.382 134.394 308.382H130.683C129.491 308.382 128.43 307.896 127.635 307.101C126.884 306.35 126.398 305.245 126.398 304.052C126.398 302.904 126.884 301.8 127.635 301.049C128.43 300.253 129.491 299.768 130.683 299.768H134.394C133.246 299.768 132.141 300.253 131.39 301.049C130.595 301.8 130.109 302.904 130.109 304.052C130.109 305.245 130.595 306.35 131.39 307.101Z" fill="#B92F6D"/>
<path d="M382.787 319.296H241.693C239.22 319.296 237.099 317.264 236.923 314.834C236.79 312.36 238.69 310.328 241.163 310.328H382.213C384.687 310.328 386.851 312.36 386.984 314.834C387.116 317.264 385.217 319.296 382.787 319.296Z" fill="#A8A6B5"/>
<path d="M382.787 319.293H241.693C240.103 319.293 238.645 318.454 237.762 317.173C238.469 315.936 239.838 315.053 241.428 315.053H382.522C384.112 315.053 385.57 315.936 386.453 317.173C385.702 318.454 384.377 319.293 382.787 319.293Z" fill="#96929F"/>
<path d="M385.702 310.327H272.88C269.656 310.327 267.182 307.676 267.359 304.452L271.997 231.387C272.218 228.162 275.001 225.512 278.225 225.512H391.092C394.316 225.512 396.79 228.162 396.569 231.387L391.931 304.452C391.754 307.676 388.927 310.327 385.702 310.327Z" fill="#96929F"/>
<path d="M385.702 310.327H276.193C272.969 310.327 270.495 307.676 270.716 304.452L275.31 231.387C275.531 228.162 278.314 225.512 281.539 225.512H391.092C394.316 225.512 396.746 228.162 396.569 231.387L391.931 304.452C391.754 307.676 388.927 310.327 385.702 310.327Z" fill="white"/>
<path fill-rule="evenodd" clip-rule="evenodd" d="M379.739 310.327H368.474L275.045 235.672L275.31 231.387C275.398 230.106 275.884 228.913 276.679 227.941L379.739 310.327ZM289.269 225.512L391.18 306.97C391.622 306.219 391.843 305.379 391.931 304.452L392.638 293.099L308.088 225.512H289.269Z" fill="#F0EEF0"/>
<path d="M267.315 319.296H241.693C239.22 319.296 237.099 317.264 236.923 314.834C236.79 312.36 238.69 310.328 241.163 310.328H266.785C269.258 310.328 271.379 312.36 271.511 314.834C271.688 317.264 269.788 319.296 267.315 319.296Z" fill="white"/>
<path d="M384.598 312.58H267.182C265.989 312.58 264.885 311.564 264.841 310.327C264.752 309.09 265.68 308.074 266.917 308.074H384.333C385.57 308.074 386.63 309.09 386.718 310.327C386.763 311.564 385.835 312.58 384.598 312.58Z" fill="#D2CED6"/>
<path d="M251.015 219.768C251.015 222.33 248.276 222.993 248.276 222.993C213.864 230.061 198.756 212.479 197.52 210.801C196.283 209.166 197.122 207.223 197.122 207.223C206.708 191.761 197.122 176.742 203.086 161.723C209.005 146.703 229.502 144.848 235.907 145.378C242.357 145.908 247.746 154.036 247.746 154.036C251.368 151.783 256.802 151.165 259.408 155.317C262.059 159.47 269.038 176.256 266.476 182.838C263.87 189.42 258.436 196.135 258.436 196.135L232.683 207.399L251.192 208.945C250.352 213.054 250.131 215.439 251.015 219.768Z" fill="#0E1632"/>
<path d="M226.719 224.363C225.541 224.245 224.392 224.098 223.273 223.921H223.229C210.286 221.889 202.644 215.97 199.331 212.789L199.242 212.701L199.11 212.569L198.889 212.392L198.801 212.259L198.712 212.171L198.624 212.127L198.536 211.994L198.447 211.862H198.403L198.271 211.685H198.226L198.138 211.553L198.05 211.464L198.005 211.42L197.917 211.288H197.873L197.785 211.155L197.696 211.067V211.023L197.652 210.978L197.608 210.89H197.564L197.52 210.802C196.283 209.167 197.122 207.223 197.122 207.223C202.997 197.77 201.672 188.449 201.142 179.217C212.362 192.69 228.221 179.879 228.221 179.879L229.988 185.71C229.988 185.71 228.663 203.69 226.763 224.363H226.719Z" fill="#010518"/>
<path d="M251.015 219.767C251.015 222.33 248.276 222.992 248.276 222.992C227.16 227.321 213.334 222.374 205.471 217.515C208.872 208.812 209.977 201.612 209.977 201.612L222.831 199.094L252.296 203.732C250.661 211.551 249.822 213.892 251.015 219.767Z" fill="#010518"/>
<path d="M211.92 221.049C220.092 223.611 231.224 226.659 240.81 231.386C241.473 231.695 240.148 234.257 240.766 234.61C241.694 235.096 243.24 236.333 244.963 238.012C249.468 242.473 258.568 277.15 257.773 280.64C256.448 286.206 244.918 301.491 244.918 301.491C242.621 305.908 239.794 312.313 237.011 319.293H179.717C183.737 306.306 185.194 297.559 185.327 289.608C188.375 262.705 173.886 256.874 173.886 256.874L188.905 221.579C194.736 219.547 206.354 220.298 206.354 220.298C209.402 220.298 209.181 220.165 211.92 221.049Z" fill="#E74D91"/>
<path d="M237.011 319.293H228.927C230.429 315.273 237.409 296.19 238.911 292.126C232.108 290.933 222.743 289.299 221.108 288.945C219.43 288.548 213.113 292.17 213.113 292.17L213.819 288.018L207.017 294.865L218.635 273.175C218.635 273.175 237.585 277.46 241.605 278.211C245.669 278.918 243.196 278.388 243.947 278.299C246.199 272.026 242.533 270.259 242.975 267.211C243.372 264.163 243.505 234.566 243.505 234.566C245.979 235.803 247.083 238.586 248.452 242.96C249.38 245.787 254.239 264.649 256.227 275.781C256.713 278.432 257.066 280.42 257.331 282.01C252.826 293.451 242.754 304.981 237.011 319.293Z" fill="#B92F6D"/>
<path d="M241.12 206.56C237.365 208.813 236.172 221.05 236.128 227.985C236.128 228.78 237.586 229.708 239.088 230.503C236.923 231.784 233.743 232.623 229.193 231.784C222.081 230.415 217.133 224.893 214.615 221.27C216.382 221.315 217.531 221.005 217.884 220.122C218.856 217.471 223.229 197.151 223.229 197.151L226.056 188.537C226.056 188.537 245.449 203.998 241.12 206.56Z" fill="#E8685B"/>
<path d="M216.028 221.181C216.028 221.181 226.188 234.036 236.658 228.912C237.276 229.53 238.336 230.149 239.397 230.679C237.674 232.534 232.284 236.377 221.064 229.265C216.514 226.394 213.687 223.567 211.92 221.049C213.643 221.226 215.012 221.314 216.028 221.181Z" fill="white"/>
<path d="M248.982 240.266C249.866 243.093 256.05 263.723 258.038 274.855C260.335 287.533 260.335 285.015 253.753 295.793C251.677 299.195 248.938 304.01 247.127 307.411C246.111 309.311 245.36 310.769 245.183 311.254C244.874 312.005 243.24 315.23 241.119 319.294H230.385C236.613 302.596 243.77 283.866 244.3 280.023C244.83 276.224 240.368 231.166 240.368 231.166C241.517 230.812 247.569 235.893 248.982 240.266Z" fill="#1C2344"/>
<path d="M253.754 291.993C254.726 291.683 256.758 290.005 258.039 288.9C257.111 290.491 255.742 292.567 253.754 295.792C251.678 299.193 248.939 304.008 247.128 307.41C246.112 309.309 245.361 310.767 245.184 311.253C245.184 311.253 244.831 309.795 241.562 308.514C240.634 308.161 238.028 307.807 234.759 307.542C236.526 302.727 238.249 298 239.751 293.892C243.417 293.45 252.561 292.346 253.754 291.993Z" fill="#0E1632"/>
<path d="M210.242 220.076C210.242 220.076 218.458 259.877 219.607 271.451C220.711 283.025 217.089 291.33 213.025 300.032C211.655 302.948 207.238 310.413 201.848 319.292H176.536L179.231 256.741L171.986 255.062C172.428 251.926 172.781 249.32 173.002 247.509L187.271 222.241C187.271 222.241 192.66 217.867 210.242 220.076Z" fill="#1C2344"/>
<path d="M194.869 239.25C190.805 255.462 193.632 262.177 193.632 262.177L195.796 252.105C195.796 252.105 197.828 266.992 200.126 268.891C201.23 269.819 214.703 272.425 219.739 273.353C220.092 279.67 218.988 285.015 217.265 290.006C213.643 290.404 191.865 287.356 190.849 294.38C190.319 297.87 190.451 286.605 190.451 286.605L189.126 319.294H176.536L179.231 256.743L171.986 255.064V254.932L172.03 254.755V254.623L172.075 254.49V254.358V254.181L172.119 254.048V253.916L172.163 253.783V253.651L172.207 253.518V253.342V253.209L172.251 253.077V252.944L172.296 252.811V252.679L172.34 252.546V252.414V252.281L172.384 252.149V252.016L172.428 251.884V251.751V251.663L172.472 251.53V251.398V251.265L172.516 251.133V251.044L172.561 250.912V250.779V250.691L172.605 250.559V250.426V250.338L172.649 250.205V250.073V249.984L172.693 249.852V249.763V249.631L172.737 249.543V249.41V249.322L172.781 249.233V249.101V249.012L172.826 248.924V248.792V248.703L172.87 248.615V248.527V248.394L172.914 248.306V248.217V248.129V248.041L172.958 247.952V247.864V247.776V247.687L173.002 247.599V247.511L180.733 233.816L194.869 239.25Z" fill="#0E1632"/>
<path d="M198.403 228.206C202.246 239.912 184.797 273.043 193.102 319.294H172.782C168.939 295.97 170.22 252.546 174.858 239.912C177.906 231.608 192.263 209.432 198.403 228.206Z" fill="#383D5D"/>
<path d="M255.211 196.709C253.223 195.782 249.777 191.894 249.777 191.894C249.777 191.894 249.998 185.312 255.697 189.465C260.909 193.264 264.487 187.035 265.018 186.019C262.235 191.409 258.436 196.091 258.436 196.091L256.138 197.107C255.785 196.96 255.476 196.827 255.211 196.709ZM265.106 185.887H265.062H265.106Z" fill="#010518"/>
<path d="M259.541 200.465C259.143 203.999 255.962 206.605 252.428 206.207C248.85 205.854 246.244 202.673 246.642 199.095C246.995 195.561 250.176 192.955 253.754 193.353C257.288 193.706 259.894 196.887 259.541 200.465Z" fill="#E8685B"/>
<path d="M210.86 191.098L210.463 194.809C212.892 194.765 213.422 192.468 213.422 190.524C214.792 191.849 215.587 193.793 215.366 195.869C215.013 199.447 211.832 202.009 208.254 201.656C204.676 201.303 202.114 198.078 202.467 194.544C202.776 191.496 205.206 189.155 208.121 188.757C208.298 188.757 208.46 188.742 208.607 188.713C209.668 188.757 210.993 189.596 210.86 191.098Z" fill="#E8685B"/>
<path d="M256.316 182.97L254.24 203.025C252.959 215.173 242.003 224.096 229.855 222.815C217.707 221.578 208.828 210.623 210.065 198.475L212.141 178.375C213.422 166.272 224.378 157.348 236.526 158.585C248.674 159.866 257.553 170.822 256.316 182.97Z" fill="#F4AD85"/>
<path d="M254.239 174.886C254.799 175.209 255.344 175.533 255.874 175.857C256.404 178.11 256.581 180.54 256.316 182.969L255.476 191.142C253.533 189.596 250.175 186.459 248.364 182.13C248.364 182.13 239.618 179.966 235.465 179.877C231.313 179.789 229.457 182.66 227.072 185.487C224.687 188.359 220.534 193.218 217.928 193.66C217.928 193.66 211.302 216.1 224.245 221.49C215.101 217.956 209.005 208.635 210.065 198.475L211.788 181.909C221.374 172.986 236.437 164.902 254.239 174.886Z" fill="#ED9072"/>
<path d="M253.003 176.698L249.424 178.2C249.424 178.2 246.067 176.168 242.18 177.051C242.18 177.051 234.317 174.136 230.12 175.77C225.924 177.361 228.397 171.574 229.148 171.309C229.943 171.088 237.851 170.558 241.296 171.22C244.742 171.883 249.955 172.722 249.955 172.722L253.003 176.698Z" fill="#010518"/>
<path d="M211.037 187.654L213.158 188.052C213.158 188.052 214.615 194.766 210.463 194.811L210.86 191.1C210.86 190.835 210.846 190.599 210.816 190.393L211.037 187.654Z" fill="#010518"/>
<path d="M242.18 177.052C238.911 172.679 233.61 171.796 229.501 177.936C225.747 183.546 220.136 193.265 210.727 192.469L210.683 192.293H210.727L211.257 186.02C211.257 186.02 210.462 186.241 209.49 186.462C209.004 183.193 208.651 179.04 209.181 175.241C210.241 167.334 221.241 155.849 233.61 155.363C245.979 154.921 254.902 162.298 256.669 166.495C258.436 170.647 260.203 180.189 260.203 180.189L258.038 183.281L255.697 189.466C249.998 183.944 250.573 178.687 248.099 176.081C246.774 174.623 244.742 174.623 242.18 177.052Z" fill="#0E1632"/>
<path d="M228.22 179.879C224.51 185.533 219.12 193.175 210.727 192.469L210.683 192.292H210.727L211.257 186.019C211.257 186.019 210.462 186.24 209.49 186.461C209.402 185.931 209.328 185.371 209.27 184.782C218.723 187.521 228.176 179.879 228.22 179.879Z" fill="#010518"/>
<path d="M237.232 229.399C237.542 229.178 238.248 229.222 238.293 229.267C238.337 229.267 241.031 230.636 241.782 231.078C242.489 231.475 243.019 232.58 243.019 232.58L247.746 247.29L244.875 247.466L247.967 249.145C247.967 249.145 246.156 275.341 245.449 279.228C244.786 283.071 242.003 287.754 242.003 287.754C242.003 287.754 243.505 280.332 243.638 278.83C243.77 277.284 237.983 229.885 237.983 229.885C237.762 229.752 237.232 229.399 237.232 229.399Z" fill="#484E6A"/>
<path d="M210.242 220.076C210.242 220.076 218.458 259.878 219.607 271.451C220.048 276.222 219.739 280.419 218.9 284.306C220.402 272.467 203.748 244.593 203.748 244.593L208.077 242.561L202.246 239.911C202.246 239.911 204.941 224.935 205.117 222.417C205.25 219.988 203.969 219.546 203.925 219.502C205.824 219.59 207.945 219.767 210.242 220.076Z" fill="#484E6A"/>
<path d="M45.8236 336.875H53.0241C55.8512 336.875 58.2367 334.534 58.2367 331.663C58.2367 328.791 55.8512 326.45 53.0241 326.45H33.9848C31.7319 326.45 29.8766 324.595 29.8766 322.298C29.8766 320.045 31.7319 318.189 33.9848 318.189H536.206C538.459 318.189 540.314 320.045 540.314 322.298C540.314 324.595 538.459 326.45 536.206 326.45H510.099C507.227 326.45 504.886 328.791 504.886 331.663C504.886 334.534 507.227 336.875 510.099 336.875H516.239C520.789 336.875 524.499 340.586 524.499 345.18C524.499 349.73 520.789 353.441 516.239 353.441H45.8236C41.2736 353.441 37.5188 349.73 37.5188 345.18C37.5188 340.586 41.2736 336.875 45.8236 336.875ZM22.8087 318.189C25.1057 318.189 26.9611 320.045 26.9611 322.298C26.9611 324.595 25.1057 326.45 22.8087 326.45C20.5116 326.45 18.6562 324.595 18.6562 322.298C18.6562 320.045 20.5116 318.189 22.8087 318.189Z" fill="#01020E"/>
<path fill-rule="evenodd" clip-rule="evenodd" d="M307.558 103.192C308.751 104.384 309.502 106.063 309.502 107.874V125.323C309.502 127.134 308.751 128.813 307.558 130.006C306.366 131.243 304.687 131.949 302.876 131.949H270.717L260.91 141.756C260.733 141.977 260.468 142.11 260.203 142.154C259.938 142.198 259.629 142.198 259.364 142.065C259.099 141.977 258.878 141.756 258.701 141.535C258.569 141.314 258.48 141.049 258.48 140.74V107.874C258.48 106.063 259.231 104.384 260.424 103.192C261.617 101.999 263.295 101.248 265.151 101.248H302.876C304.687 101.248 306.366 101.999 307.558 103.192ZM261.529 104.296C260.601 105.224 260.027 106.505 260.027 107.874V140.475L270.054 130.403H302.876C304.245 130.403 305.526 129.829 306.454 128.901C307.382 127.974 307.956 126.737 307.956 125.323V107.874C307.956 106.505 307.382 105.224 306.454 104.296C305.526 103.368 304.245 102.794 302.876 102.794H265.151C263.737 102.794 262.456 103.368 261.529 104.296Z" fill="#1A293D"/>
<path d="M264.797 107.743C264.576 107.743 264.399 107.522 264.399 107.301C264.399 107.08 264.576 106.859 264.797 106.859H303.185C303.406 106.859 303.582 107.08 303.582 107.301C303.582 107.522 303.406 107.743 303.185 107.743H264.797Z" fill="#1A293D"/>
<path d="M299.121 111.893C298.856 111.893 298.679 111.672 298.679 111.452C298.679 111.231 298.856 111.01 299.121 111.01H303.185C303.406 111.01 303.582 111.231 303.582 111.452C303.582 111.672 303.406 111.893 303.185 111.893H299.121ZM264.797 111.893C264.576 111.893 264.399 111.672 264.399 111.452C264.399 111.231 264.576 111.01 264.797 111.01H293.687C293.952 111.01 294.129 111.231 294.129 111.452C294.129 111.672 293.952 111.893 293.687 111.893H264.797Z" fill="#1A293D"/>
<path d="M264.797 116.003C264.576 116.003 264.399 115.827 264.399 115.606C264.399 115.341 264.576 115.164 264.797 115.164H303.185C303.406 115.164 303.582 115.341 303.582 115.606C303.582 115.827 303.406 116.003 303.185 116.003H264.797Z" fill="#1A293D"/>
<path d="M264.797 121.657C264.576 121.657 264.399 121.436 264.399 121.215C264.399 120.994 264.576 120.773 264.797 120.773H292.494C292.759 120.773 292.936 120.994 292.936 121.215C292.936 121.436 292.759 121.657 292.494 121.657H264.797Z" fill="#1A293D"/>
<path d="M264.797 126.119C264.576 126.119 264.399 125.942 264.399 125.721C264.399 125.456 264.576 125.279 264.797 125.279H280.126C280.391 125.279 280.567 125.456 280.567 125.721C280.567 125.942 280.391 126.119 280.126 126.119H264.797Z" fill="#1A293D"/>
<path d="M283.439 126.119C283.218 126.119 282.997 125.942 282.997 125.721C282.997 125.456 283.218 125.279 283.439 125.279H288.916C289.137 125.279 289.358 125.456 289.358 125.721C289.358 125.942 289.137 126.119 288.916 126.119H283.439Z" fill="#1A293D"/>
</svg>
